<?xml version="1.0" encoding="UTF-8"?>
<svg width="14px" height="16px" viewBox="0 0 14 16" version="1.1" xmlns="http://www.w3.org/2000/svg" xmlns:xlink="http://www.w3.org/1999/xlink">
    <!-- Generator: sketchtool 51.1 (57501) - http://www.bohemiancoding.com/sketch -->
    <title>12FC08AD-D814-4A63-86A0-F04EEA1E04B6</title>
    <desc>Created with sketchtool.</desc>
    <defs></defs>
    <g id="ASSETS" stroke="none" stroke-width="1" fill="none" fill-rule="evenodd">
        <g transform="translate(-936.000000, -459.000000)" fill="#13C9A0" id="alerte-petit">
            <path d="M942.801,475 C943.68,475 944.398,474.281 944.398,473.398 L941.199,473.398 C941.199,474.281 941.922,475 942.801,475 Z M948,470.199 L948,465.801 C948,463.32 946.32,461.32 944,460.762 L944,460.199 C944,459.559 943.441,459 942.801,459 C942.16,459 941.602,459.559 941.602,460.199 L941.602,460.762 C939.281,461.32 937.602,463.32 937.602,465.801 L937.602,470.199 L936,471.801 L936,472.602 L949.602,472.602 L949.602,471.801 L948,470.199 Z"></path>
        </g>
    </g>
</svg>