<?xml version="1.0" encoding="UTF-8"?>
<svg width="19px" height="23px" viewBox="0 0 19 23" version="1.1" xmlns="http://www.w3.org/2000/svg" xmlns:xlink="http://www.w3.org/1999/xlink">
    <!-- Generator: sketchtool 51.1 (57501) - http://www.bohemiancoding.com/sketch -->
    <title>C57026EE-1904-4867-B643-BE2ED21B61C5</title>
    <desc>Created with sketchtool.</desc>
    <defs></defs>
    <g id="ASSETS" stroke="none" stroke-width="1" fill="none" fill-rule="evenodd">
        <g transform="translate(-940.000000, -394.000000)" fill="#13C9A0" id="alertes">
            <path d="M949.5,417 C950.727834,417 951.730775,415.966437 951.730775,414.697125 L947.262241,414.697125 C947.262241,415.966437 948.272166,417 949.5,417 Z M956.762241,410.098563 L956.762241,403.776437 C956.762241,400.21 954.415527,397.335 951.174827,396.532875 L951.174827,395.723563 C951.174827,394.803562 950.393986,394 949.5,394 C948.604617,394 947.825173,394.803562 947.825173,395.723563 L947.825173,396.532875 C944.583076,397.335 942.237759,400.21 942.237759,403.776437 L942.237759,410.098563 L940,412.401437 L940,413.552875 L959,413.552875 L959,412.401437 L956.762241,410.098563 Z"></path>
        </g>
    </g>
</svg>