<?xml version="1.0" encoding="UTF-8"?>
<svg width="19px" height="19px" viewBox="0 0 19 19" version="1.1" xmlns="http://www.w3.org/2000/svg" xmlns:xlink="http://www.w3.org/1999/xlink">
    <!-- Generator: sketchtool 51.1 (57501) - http://www.bohemiancoding.com/sketch -->
    <title>D878C674-DAEF-4F36-BBEF-24C0868ADBD1</title>
    <desc>Created with sketchtool.</desc>
    <defs></defs>
    <g id="ASSETS" stroke="none" stroke-width="1" fill="none" fill-rule="evenodd">
        <g transform="translate(-711.000000, -122.000000)" fill="#FFFFFF" fill-rule="nonzero" id="Group-8">
            <g transform="translate(446.000000, 111.000000)">
                <path d="M274.5,28.1 C270.3105,28.1 266.9,24.6895 266.9,20.5 C266.9,16.3105 270.3105,12.9 274.5,12.9 C278.6895,12.9 282.1,16.3105 282.1,20.5 C282.1,24.6895 278.6895,28.1 274.5,28.1 L274.5,28.1 Z M274.5,11 C269.2465,11 265,15.2465 265,20.5 C265,25.7535 269.2465,30 274.5,30 C279.7535,30 284,25.7535 284,20.5 C284,15.2465 279.7535,11 274.5,11 L274.5,11 Z M276.9605,16.7 L274.5,19.1605 L272.0395,16.7 L270.7,18.0395 L273.1605,20.5 L270.7,22.9605 L272.0395,24.3 L274.5,21.8395 L276.9605,24.3 L278.3,22.9605 L275.8395,20.5 L278.3,18.0395 L276.9605,16.7 Z" id="close-fenetre"></path>
            </g>
        </g>
    </g>
</svg>