<?xml version="1.0" encoding="UTF-8"?>
<svg width="21px" height="20px" viewBox="0 0 21 20" version="1.1" xmlns="http://www.w3.org/2000/svg" xmlns:xlink="http://www.w3.org/1999/xlink">
    <!-- Generator: sketchtool 51.1 (57501) - http://www.bohemiancoding.com/sketch -->
    <title>201ED3EF-4589-41B7-A9BA-9991C9EF38B9</title>
    <desc>Created with sketchtool.</desc>
    <defs></defs>
    <g id="ASSETS" stroke="none" stroke-width="1" fill="none" fill-rule="evenodd" opacity="0.7" stroke-linecap="round" stroke-linejoin="round">
        <g transform="translate(-1019.000000, -395.000000)" id="favori-off" stroke="#9B9B9B" stroke-width="2">
            <path d="M1034.33721,407.269222 C1034.21344,407.38355 1034.15786,407.552153 1034.1907,407.716232 L1035.36783,414 L1029.74515,410.948825 C1029.66937,410.906611 1029.58349,410.88651 1029.50013,410.88651 C1029.41677,410.88651 1029.33088,410.906611 1029.2551,410.948825 L1023.63242,414 L1024.8093,407.716232 C1024.84214,407.552153 1024.78656,407.38355 1024.66304,407.269222 L1020,402.869982 L1026.36028,402.043051 C1026.53205,402.020688 1026.67856,401.914149 1026.75181,401.762633 L1029.50013,396 L1032.24819,401.762633 C1032.32144,401.914149 1032.46795,402.020688 1032.63972,402.043051 L1039,402.869982 L1034.33721,407.269222 Z"></path>
        </g>
    </g>
</svg>