<?xml version="1.0" encoding="UTF-8"?>
<svg width="21px" height="20px" viewBox="0 0 21 20" version="1.1" xmlns="http://www.w3.org/2000/svg" xmlns:xlink="http://www.w3.org/1999/xlink">
    <!-- Generator: sketchtool 51.1 (57501) - http://www.bohemiancoding.com/sketch -->
    <title>9A97038F-ADC9-4DD5-A3C5-EE173C7CD12E</title>
    <desc>Created with sketchtool.</desc>
    <defs></defs>
    <g id="ASSETS" stroke="none" stroke-width="1" fill="none" fill-rule="evenodd" stroke-linecap="round" stroke-linejoin="round">
        <g transform="translate(-879.000000, -395.000000)" fill="#13C9A0" id="favoris" stroke="#13C9A0" stroke-width="2">
            <path d="M894.337211,407.269222 C894.213436,407.38355 894.157863,407.552153 894.190702,407.716232 L895.367829,414 L889.745151,410.948825 C889.66937,410.906611 889.583485,410.88651 889.500126,410.88651 C889.416767,410.88651 889.330883,410.906611 889.255102,410.948825 L883.632424,414 L884.809298,407.716232 C884.842137,407.552153 884.786564,407.38355 884.663042,407.269222 L880,402.869982 L886.360278,402.043051 C886.532047,402.020688 886.678557,401.914149 886.751811,401.762633 L889.500126,396 L892.248189,401.762633 C892.321443,401.914149 892.467953,402.020688 892.639722,402.043051 L899,402.869982 L894.337211,407.269222 Z"></path>
        </g>
    </g>
</svg>