<?xml version="1.0" encoding="UTF-8"?>
<svg width="19px" height="19px" viewBox="0 0 19 19" version="1.1" xmlns="http://www.w3.org/2000/svg" xmlns:xlink="http://www.w3.org/1999/xlink">
    <!-- Generator: sketchtool 51.1 (57501) - http://www.bohemiancoding.com/sketch -->
    <title>FB20365A-E831-4F68-BA34-40A94B4A8D66</title>
    <desc>Created with sketchtool.</desc>
    <defs></defs>
    <g id="ASSETS" stroke="none" stroke-width="1" fill="none" fill-rule="evenodd">
        <g transform="translate(-711.000000, -186.000000)" id="encart-question">
            <g transform="translate(700.000000, 177.000000)">
                <g id="interrogation" transform="translate(12.000000, 10.000000)">
                    <circle id="Oval-6" stroke="#FFFFFF" stroke-width="2" cx="8.5" cy="8.5" r="8.5"></circle>
                    <path d="M9.66040695,12.590604 C9.66040695,13.3677517 9.02815863,14 8.25101097,14 C7.47386332,14 6.841615,13.3677517 6.841615,12.590604 C6.841615,11.8134564 7.47386332,11.1812081 8.25101097,11.1812081 C9.02815863,11.1812081 9.66040695,11.8134564 9.66040695,12.590604 M11.8498029,6.97986577 C11.8498029,9.22993289 9.41956802,9.26456376 9.41956802,10.0960738 L9.41956802,10.3087248 C9.41956802,10.5311074 9.23926601,10.7114094 9.01688346,10.7114094 L7.48510493,10.7114094 C7.26272238,10.7114094 7.08242037,10.5311074 7.08242037,10.3087248 L7.08242037,10.0181544 C7.08242037,8.81865772 7.99181634,8.33916107 8.67903111,7.95385906 C9.26832641,7.62348993 9.62950091,7.39879195 9.62950091,6.96127517 C9.62950091,6.38255034 8.89127943,5.99842282 8.29446735,5.99842282 C7.51631299,5.99842282 7.1570848,6.36677852 6.65211836,7.00409396 C6.51597742,7.17590604 6.2675546,7.20781879 6.09285661,7.07536913 L5.15916534,6.36738255 C4.9877895,6.23744966 4.94940024,5.99604027 5.0704405,5.81828859 C5.86329285,4.6540604 6.87315863,4 8.4454405,4 C10.0921184,4 11.8498029,5.28536913 11.8498029,6.97986577" id="Fill-1" fill="#FFFFFF"></path>
                </g>
            </g>
        </g>
    </g>
</svg>