<?xml version="1.0" encoding="UTF-8"?>
<svg width="115px" height="55px" viewBox="0 0 115 55" version="1.1" xmlns="http://www.w3.org/2000/svg" xmlns:xlink="http://www.w3.org/1999/xlink">
    <!-- Generator: sketchtool 51.1 (57501) - http://www.bohemiancoding.com/sketch -->
    <title>85D1F597-C605-47D3-8CBF-6CA725425BFC</title>
    <desc>Created with sketchtool.</desc>
    <defs></defs>
    <g id="ASSETS" stroke="none" stroke-width="1" fill="none" fill-rule="evenodd" stroke-linecap="round">
        <g transform="translate(-224.000000, -104.000000)" id="mail" stroke="#1E7BE2" stroke-width="3.024">
            <g transform="translate(224.000000, 105.000000)">
                <path d="M113,47.0420294 C113,49.6565588 110.912513,51.7770882 108.336113,51.7770882 L49.8653933,51.7770882 C47.2874867,51.7770882 45.2,49.6565588 45.2,47.0420294 L45.2,5.49861765 C45.2,2.88485294 47.2874867,0.764323529 49.8653933,0.764323529 L108.336113,0.764323529 C110.912513,0.764323529 113,2.88485294 113,5.49861765 L113,47.0420294 Z" id="Stroke-1" stroke-linejoin="round"></path>
                <polyline id="Stroke-3" stroke-linejoin="round" points="47.6269387 3.13384118 79.0996987 31.0364294 110.573212 3.13384118"></polyline>
                <path d="M73.7258707,26.2706294 L47.6266373,49.4075706" id="Stroke-5" stroke-linejoin="round"></path>
                <path d="M110.572986,49.4078765 L84.4737527,26.2709353" id="Stroke-7" stroke-linejoin="round"></path>
                <path d="M35.3125,16.0588235 L9.83106264,16.0588235" id="Line-3" fill="#1E7BE2"></path>
                <path d="M35.2907692,25.2352941 L15.2795741,25.2352941" id="Line-3-Copy" fill="#1E7BE2"></path>
                <path d="M35.2990476,34.4117647 L1.71086872,34.4117647" id="Line-3-Copy-2" fill="#1E7BE2"></path>
            </g>
        </g>
    </g>
</svg>