<?xml version="1.0" encoding="UTF-8"?>
<svg width="25px" height="20px" viewBox="0 0 25 20" version="1.1" xmlns="http://www.w3.org/2000/svg" xmlns:xlink="http://www.w3.org/1999/xlink">
    <!-- Generator: sketchtool 51.1 (57501) - http://www.bohemiancoding.com/sketch -->
    <title>1683AD48-21CC-432D-A6F3-76E79DAD97FF</title>
    <desc>Created with sketchtool.</desc>
    <defs></defs>
    <g id="ASSETS" stroke="none" stroke-width="1" fill="none" fill-rule="evenodd">
        <g transform="translate(-767.000000, -328.000000)" fill="#FFFFFF" id="perfectionner" stroke="#FFFFFF" stroke-width="0.5">
            <g transform="translate(768.000000, 329.000000)">
                <path d="M1.15,16.8 L21.85,16.8 L21.85,4.2 L1.15,4.2 L1.15,16.8 Z M4.025,1.2 L13.038125,1.2 L14.734375,3 L4.025,3 L4.025,1.2 Z M22.425,3 L16.34725,3 L13.687875,0.18 C13.5815,0.066 13.432,0 13.279625,0 L3.45,0 C3.13375,0 2.875,0.27 2.875,0.6 L2.875,3 L0.575,3 C0.25875,3 0,3.27 0,3.6 L0,17.4 C0,17.73 0.25875,18 0.575,18 L22.425,18 C22.74125,18 23,17.73 23,17.4 L23,3.6 C23,3.27 22.74125,3 22.425,3 Z" id="Fill-1"></path>
            </g>
        </g>
    </g>
</svg>