<?xml version="1.0" encoding="UTF-8"?>
<svg width="28px" height="25px" viewBox="0 0 28 25" version="1.1" xmlns="http://www.w3.org/2000/svg" xmlns:xlink="http://www.w3.org/1999/xlink">
    <!-- Generator: sketchtool 51.1 (57501) - http://www.bohemiancoding.com/sketch -->
    <title>63F26226-7F66-4491-BD1B-D08A66F9299D</title>
    <desc>Created with sketchtool.</desc>
    <defs></defs>
    <g id="ASSETS" stroke="none" stroke-width="1" fill="none" fill-rule="evenodd">
        <g transform="translate(-44.000000, -138.000000)" fill="#FFFFFF" id="profil" stroke="#FFFFFF" stroke-width="0.8">
            <path d="M62.2846814,141.300342 C62.2846814,140.665448 61.7684456,140.150171 61.1323693,140.150171 L47.3046242,140.150171 C46.6685479,140.150171 46.1523121,140.665448 46.1523121,141.300342 L46.1523121,155.102395 C46.1523121,155.737864 46.6685479,156.252566 47.3046242,156.252566 L48.3445858,156.252566 C48.5450882,155.882211 48.651677,154.442197 48.8573647,154.132801 C48.8573647,154.132801 49.2163099,152.960776 52.0435077,152.85151 C52.3315857,152.85151 52.4756247,152.670933 52.4756247,152.395467 L52.4756247,151.996933 C52.4756247,151.94115 52.4664062,151.891692 52.4629493,151.837059 C52.2123214,151.63808 52.1524012,151.561593 51.7168272,151.199289 C51.7168272,151.199289 50.752342,150.568996 50.6446008,149.861065 C50.6446008,149.861065 50.1975037,147.67574 50.1975037,146.870621 C50.1975037,144.886 51.0853602,143.025599 54.2184967,143.025599 C57.3095739,143.025599 58.2394898,144.886 58.2394898,146.870621 C58.2394898,147.656187 57.7923927,149.861065 57.7923927,149.861065 C57.7025123,150.531615 56.7201663,151.199289 56.7201663,151.199289 C56.3295325,151.561018 56.1520764,151.712841 55.9285279,151.859488 C55.9267994,151.906069 55.9181571,151.949201 55.9181571,151.996933 L55.9181571,152.395467 C55.9181571,152.670933 56.0621961,152.85151 56.3502741,152.85151 C59.2201074,152.974578 59.5796287,154.132801 59.5796287,154.132801 C59.7853164,154.442197 59.8919053,155.882211 60.0924076,156.252566 L61.1323693,156.252566 C61.7684456,156.252566 62.2846814,155.737864 62.2846814,155.102395 L62.2846814,141.300342 Z M54.7946528,151.651882 L54.7946528,151.076796 L55.4618415,150.807656 C55.796012,150.539666 56.6400806,149.746048 56.6400806,149.746048 L56.6631268,149.632756 C56.8388544,148.763802 57.0871777,147.331839 57.0871777,146.870621 C57.0871777,145.006768 56.202202,144.17577 54.2184967,144.17577 C52.2347915,144.17577 51.3498158,145.006768 51.3498158,146.870621 C51.3498158,147.37152 51.6102383,148.829937 51.7738666,149.631031 L51.7969129,149.771927 C51.9853159,149.961705 52.5113464,150.46548 52.9803374,150.788678 L53.6423407,151.076796 L53.6423407,151.651882 C53.6377314,151.6053 53.6423407,152.802053 53.6423407,152.802053 C53.6423407,153.731966 53.0056883,154.000531 52.1328118,154.000531 L52.1310834,154.000531 C50.1733051,154.077017 49.8685186,154.721113 49.799956,154.795874 C49.7388835,154.887313 49.6708971,156.050711 49.6046391,156.252566 L58.8335067,156.252566 C58.7678249,156.051286 58.7038716,154.893639 58.6335805,154.788973 C58.6065012,154.756768 58.3495356,154.087944 56.3502741,154.001681 C55.4318814,154.001681 54.7946528,153.732541 54.7946528,152.802053 C54.7946528,152.802053 54.8055997,151.570795 54.7946528,151.651882 Z M61.1323693,157.402737 L47.3046242,157.402737 C46.0318955,157.402737 45,156.372759 45,155.102395 L45,141.300342 C45,140.029978 46.0318955,139 47.3046242,139 L61.1323693,139 C62.405098,139 63.4369935,140.029978 63.4369935,141.300342 L63.4369935,155.102395 C63.4369935,156.372759 62.405098,157.402737 61.1323693,157.402737 Z M71.284815,149.291156 L65.9640139,160.680149 C65.4299172,161.823994 64.0673082,162.318568 62.9213338,161.785464 L59.7974157,160.331072 C59.5698341,160.254011 59.4039011,160.04583 59.4039011,159.792792 C59.4039011,159.475345 59.6614429,159.217707 59.9800572,159.217707 C60.0785799,159.217707 60.1667318,159.248761 60.2479698,159.292468 L60.2531552,159.282692 L63.4053049,160.75031 C63.978004,161.016574 64.6590204,160.769288 64.926933,160.197653 L70.2471579,148.808084 C70.5144943,148.236449 70.2667472,147.556123 69.693472,147.289858 L65.7416177,145.450159 C65.7416177,145.450159 65.1476008,145.244854 65.1476008,144.804913 C65.1476008,144.487466 65.4051425,144.229828 65.7237568,144.229828 C65.8257364,144.229828 65.9167691,144.263183 65.9991594,144.309765 L70.177443,146.254129 C71.3234174,146.787808 71.8194878,148.14731 71.284815,149.291156 Z"></path>
        </g>
    </g>
</svg>