<?xml version="1.0" encoding="UTF-8"?>
<svg width="53px" height="46px" viewBox="0 0 53 46" version="1.1" xmlns="http://www.w3.org/2000/svg" xmlns:xlink="http://www.w3.org/1999/xlink">
    <!-- Generator: sketchtool 51.1 (57501) - http://www.bohemiancoding.com/sketch -->
    <title>ACFC2E05-1C91-414C-9777-3A8CFBD8CCE2</title>
    <desc>Created with sketchtool.</desc>
    <defs></defs>
    <g id="ASSETS" stroke="none" stroke-width="1" fill="none" fill-rule="evenodd">
        <g transform="translate(-864.000000, -155.000000)" fill="#1E7BE2" id="profil-petit">
            <path d="M898.569363,159.600684 C898.569363,158.330895 897.536891,157.300342 896.264739,157.300342 L868.609248,157.300342 C867.337096,157.300342 866.304624,158.330895 866.304624,159.600684 L866.304624,187.20479 C866.304624,188.475729 867.337096,189.505132 868.609248,189.505132 L870.689172,189.505132 C871.090176,188.764422 871.303354,185.884393 871.714729,185.265601 C871.714729,185.265601 872.43262,182.921553 878.087015,182.70302 C878.663171,182.70302 878.951249,182.341866 878.951249,181.790934 L878.951249,180.993866 C878.951249,180.882299 878.932812,180.783385 878.925899,180.674118 C878.424643,180.276159 878.304802,180.123186 877.433654,179.398579 C877.433654,179.398579 875.504684,178.137991 875.289202,176.722131 C875.289202,176.722131 874.395007,172.351481 874.395007,170.741241 C874.395007,166.772001 876.17072,163.051197 882.436993,163.051197 C888.619148,163.051197 890.47898,166.772001 890.47898,170.741241 C890.47898,172.312375 889.584785,176.722131 889.584785,176.722131 C889.405025,178.06323 887.440333,179.398579 887.440333,179.398579 C886.659065,180.122036 886.304153,180.425681 885.857056,180.718975 C885.853599,180.812139 885.836314,180.898402 885.836314,180.993866 L885.836314,181.790934 C885.836314,182.341866 886.124392,182.70302 886.700548,182.70302 C892.440215,182.949157 893.159257,185.265601 893.159257,185.265601 C893.570633,185.884393 893.783811,188.764422 894.184815,189.505132 L896.264739,189.505132 C897.536891,189.505132 898.569363,188.475729 898.569363,187.20479 L898.569363,159.600684 Z M883.589306,180.303763 L883.589306,179.153592 L884.923683,178.615312 C885.592024,178.079332 887.280161,176.492096 887.280161,176.492096 L887.326254,176.265513 C887.677709,174.527604 888.174355,171.663678 888.174355,170.741241 C888.174355,167.013537 886.404404,165.35154 882.436993,165.35154 C878.469583,165.35154 876.699632,167.013537 876.699632,170.741241 C876.699632,171.74304 877.220477,174.659874 877.547733,176.262062 L877.593826,176.543854 C877.970632,176.923411 879.022693,177.93096 879.960675,178.577357 L881.284681,179.153592 L881.284681,180.303763 C881.275463,180.210599 881.284681,182.604105 881.284681,182.604105 C881.284681,184.463932 880.011377,185.001062 878.265624,185.001062 L878.262167,185.001062 C874.34661,185.154035 873.737037,186.442226 873.599912,186.591748 C873.477767,186.774626 873.341794,189.101422 873.209278,189.505132 L891.667013,189.505132 C891.53565,189.102572 891.407743,186.787278 891.267161,186.577946 C891.213002,186.513537 890.699071,185.175888 886.700548,185.003362 C884.863763,185.003362 883.589306,184.465082 883.589306,182.604105 C883.589306,182.604105 883.611199,180.141589 883.589306,180.303763 Z M896.264739,191.805474 L868.609248,191.805474 C866.063791,191.805474 864,189.745518 864,187.20479 L864,159.600684 C864,157.059956 866.063791,155 868.609248,155 L896.264739,155 C898.810196,155 900.873987,157.059956 900.873987,159.600684 L900.873987,187.20479 C900.873987,189.745518 898.810196,191.805474 896.264739,191.805474 Z M916.56963,175.582311 L905.928028,198.360299 C904.859834,200.647989 902.134616,201.637136 899.842668,200.570928 L893.594831,197.662145 C893.139668,197.508022 892.807802,197.09166 892.807802,196.585585 C892.807802,195.95069 893.322886,195.435414 893.960114,195.435414 C894.15716,195.435414 894.333464,195.497523 894.49594,195.584936 L894.50631,195.565383 L900.81061,198.50062 C901.956008,199.033149 903.318041,198.538575 903.853866,197.395305 L914.494316,174.616167 C915.028989,173.472897 914.533494,172.112245 913.386944,171.579716 L905.483235,167.900319 C905.483235,167.900319 904.295202,167.489708 904.295202,166.609827 C904.295202,165.974932 904.810285,165.459656 905.447514,165.459656 C905.651473,165.459656 905.833538,165.526366 905.998319,165.619529 L914.354886,169.508258 C916.646835,170.575616 917.638976,173.294621 916.56963,175.582311 Z"></path>
        </g>
    </g>
</svg>