<?xml version="1.0" encoding="UTF-8"?>
<svg width="21px" height="20px" viewBox="0 0 21 20" version="1.1" xmlns="http://www.w3.org/2000/svg" xmlns:xlink="http://www.w3.org/1999/xlink">
    <!-- Generator: sketchtool 51.1 (57501) - http://www.bohemiancoding.com/sketch -->
    <title>8E14BC48-401A-4744-971B-A073432FEF6B</title>
    <desc>Created with sketchtool.</desc>
    <defs></defs>
    <g id="ASSETS" stroke="none" stroke-width="1" fill="none" fill-rule="evenodd">
        <g transform="translate(-1020.000000, -335.000000)" fill="#1E7BE2" id="recherche" stroke="#FFFFFF" stroke-width="0.5">
            <g transform="translate(1021.000000, 336.000000)">
                <path d="M18.5776355,15.6419753 L14.6611764,11.9317503 C15.6050075,10.6409671 16.077163,9.20200219 16.077163,7.6156134 C16.077163,6.58436597 15.8658408,5.59809211 15.4431964,4.65701915 C15.020832,3.71579464 14.4498542,2.90452746 13.7305029,2.22302817 C13.0111516,1.54152888 12.1549449,1.00059569 11.1616426,0.600418036 C10.1680204,0.200126716 9.1270467,0 8.0385215,0 C6.95007627,0 5.90902257,0.200126716 4.91568033,0.600418036 C3.92217812,1.00059569 3.06585136,1.54152888 2.34650009,2.22302817 C1.62706883,2.90452746 1.056171,3.71594619 0.633726594,4.65701915 C0.211242198,5.59820577 0,6.58436597 0,7.6156134 C0,8.64678506 0.211242198,9.63271793 0.633726594,10.5740561 C1.056131,11.5151291 1.62706883,12.3262826 2.34650009,13.0077819 C3.06585136,13.6895085 3.92233809,14.2302143 4.91568033,14.6306193 C5.90914255,15.0308349 6.95007627,15.2309237 8.0385215,15.2309237 C9.71338178,15.2309237 11.23203,14.7835749 12.5945862,13.8894836 L16.5110453,17.5889484 C16.7850763,17.8629196 17.1271751,18 17.5385814,18 C17.9343906,18 18.2771293,17.8629575 18.5661576,17.5889484 C18.8553058,17.315015 18.9999999,16.9904626 18.9999999,16.6154808 C19.0001199,16.2334896 18.8593051,15.9088236 18.5776355,15.6419753 L18.5776355,15.6419753 Z M11.6524348,11.0389851 C10.6514539,11.9874463 9.44690946,12.461658 8.0385215,12.461658 C6.63037349,12.461658 5.42582904,11.9873326 4.42476818,11.0389851 C3.42370732,10.0906754 2.92319689,8.94966521 2.92319689,7.61538607 C2.92319689,6.28133426 3.4238273,5.13998303 4.42476818,4.19178705 C5.42562908,3.24336374 6.63037349,2.76922785 8.0385215,2.76922785 C9.44674949,2.76922785 10.6512939,3.24355318 11.6524348,4.19178705 C12.6535756,5.13998303 13.1540861,6.28133426 13.1540861,7.61538607 C13.1540861,8.94966521 12.6534157,10.0906754 11.6524348,11.0389851 L11.6524348,11.0389851 Z" id="Shape"></path>
            </g>
        </g>
    </g>
</svg>