<?xml version="1.0" encoding="UTF-8"?>
<svg width="163px" height="156px" viewBox="0 0 163 156" version="1.1" xmlns="http://www.w3.org/2000/svg" xmlns:xlink="http://www.w3.org/1999/xlink">
    <!-- Generator: Sketch 51.1 (57501) - http://www.bohemiancoding.com/sketch -->
    <title>cap R</title>
    <desc>Created with Sketch.</desc>
    <defs></defs>
    <g id="DESKTOP" stroke="none" stroke-width="1" fill="none" fill-rule="evenodd">
        <g id="desktop-3.1" transform="translate(-562.000000, -204.000000)">
            <g id="cap-R" transform="translate(562.000000, 204.000000)">
                <g id="builder" transform="translate(84.000000, 61.000000)">
                    <path d="M22.6969293,58.8001846 C26.0613341,56.6688874 25.6850219,50.325607 25.6850219,48.8455082 L52.7644108,48.8455082 C52.7644108,50.325607 52.3471753,56.6688874 55.7113514,58.8001846 L39.2247164,76.9687342 L22.6969293,58.8001846 Z" id="Shape" fill="#FFD7A3" fill-rule="nonzero"></path>
                    <path d="M49.7555136,65.1274943 L55.7113514,58.8001846 C52.3469466,56.6691123 52.7644108,50.325607 52.7644108,48.8455082 L25.6850219,48.8455082 C27.6278537,54.3414433 40.4784807,63.7706621 49.7555136,65.1274943 Z" id="Shape" fill="#FDC88E" fill-rule="nonzero"></path>
                    <path d="M60.2865395,29.6033247 C60.2865395,41.4567113 53.3494551,56.2464519 39.224945,56.2464519 C25.1004349,56.2464519 18.1633505,41.4567113 18.1633505,29.6033247 C18.1633505,17.7499381 27.5931031,13.3213387 39.224945,13.3213387 C50.8567869,13.3213387 60.2865395,17.7499381 60.2865395,29.6033247 Z" id="Shape" fill="#FFE1B2" fill-rule="nonzero"></path>
                    <path d="M73.826234,94.7310439 C76.3189022,94.7310439 78.3394655,92.7430328 78.3394655,90.2905227 L78.3394655,76.0152177 C78.3394655,69.5023333 73.1812907,62.5494682 66.876804,60.5648312 L57.4648839,57.6017095 C52.4011301,61.4112767 45.1645506,66.6080429 39.224945,66.6080429 C33.2853394,66.6080429 26.0487599,61.4112767 20.9850061,57.6017095 L11.5728574,60.5646063 C5.26837072,62.5492432 0.110195916,69.5021083 0.110195916,76.0149927 L0.110195916,90.2905227 C0.110195916,92.7430328 2.1307592,94.7310439 4.6234274,94.7310439 L73.826234,94.7310439 Z" id="Shape" fill="#004990" fill-rule="nonzero"></path>
                    <g id="Group-7" transform="translate(26.542764, 25.648805)" fill-rule="nonzero">
                        <g id="Group" transform="translate(0.295080, 0.263358)">
                            <g transform="translate(1.531077, 5.423080)" id="Oval">
                                <ellipse fill="#3B2519" cx="1.9818266" cy="2.18791138" rx="1.89026817" ry="2.036969"></ellipse>
                                <ellipse fill="#FFFFFF" cx="1.15780074" cy="1.288584" rx="1" ry="1"></ellipse>
                            </g>
                            <path d="M0.489026125,2.56300773 C1.38286912,3.00287975 2.81810108,1.06864799 6.103487,2.75130911 C6.70244448,3.0580144 7.05979795,0.127743656 3.5383199,0.127743656 C0.489026125,0.127743656 -0.0511379856,2.29757811 0.489026125,2.56300773 Z" id="Shape" fill="#51362A"></path>
                            <g transform="translate(18.679144, 5.423080)" id="Oval">
                                <ellipse fill="#3B2519" cx="2.07797826" cy="2.18791138" rx="1.89026817" ry="2.036969"></ellipse>
                                <ellipse fill="#FFFFFF" cx="1.2539524" cy="1.288584" rx="1" ry="1"></ellipse>
                            </g>
                            <path d="M23.5476644,2.56300773 C22.6538214,3.00287975 21.2185894,1.06864799 17.9332035,2.75130911 C17.334246,3.0580144 16.9768926,0.127743656 20.4986768,0.127743656 C23.5476644,0.127743656 24.0875223,2.29757811 23.5476644,2.56300773 Z" id="Shape" fill="#51362A"></path>
                        </g>
                        <path d="M12.3134249,15.5054828 C10.4455104,15.5054828 9.32047476,14.132841 9.32047476,14.796867 C9.32047476,15.4611943 9.86063887,16.7232654 12.3134249,16.7232654 C14.7662109,16.7232654 15.306375,15.4611943 15.306375,14.796867 C15.306375,14.1325397 14.1810331,15.5054828 12.3134249,15.5054828 Z" id="Shape" fill="#FCBC85"></path>
                        <path d="M12.3134249,23.4778407 C11.6673102,23.4778407 11.2781103,23.00302 11.2781103,23.2328983 C11.2781103,23.4627766 11.4649018,23.8990333 12.3134249,23.8990333 C13.161948,23.8990333 13.3484332,23.4627766 13.3484332,23.2328983 C13.3484332,23.00302 12.9592333,23.4778407 12.3134249,23.4778407 Z" id="Shape" fill="#FCBC85"></path>
                        <path d="M12.3134249,21.7855386 C9.3529336,21.7855386 7.56922841,20.5993905 7.56922841,20.9000702 C7.56922841,21.2007498 8.4254069,22.3835838 12.3134249,22.3835838 C16.2014429,22.3835838 17.0576214,21.2007498 17.0576214,20.9000702 C17.0573151,20.5993905 15.2739162,21.7855386 12.3134249,21.7855386 Z" id="Shape" fill="#F7945E"></path>
                    </g>
                    <path d="M13.6498904,59.9107085 L13.6498904,94.730819 L64.799771,94.730819 L64.799771,59.9107085 L58.7822052,58.0160472 L58.7822052,79.9716701 C58.7822052,80.6491864 58.3251894,81.248199 57.656698,81.4101551 C52.5641378,82.6441706 46.176204,83.3828703 39.224945,83.3828703 C32.273686,83.3828703 25.8857522,82.6441706 20.793192,81.4101551 C20.124472,81.248199 19.6676848,80.6491864 19.6676848,79.9716701 L19.6676848,58.0162721 L13.6498904,59.9107085 Z" id="Shape" fill="#F5A623" fill-rule="nonzero"></path>
                    <path d="M18.8867112,31.0836484 C16.6315815,30.5284989 15.1542247,31.7146023 15.1542247,34.0440708 C15.1542247,37.1277599 18.1868986,44.6827867 21.3750356,39.9646908 C24.5631726,35.2465948 18.8867112,31.0836484 18.8867112,31.0836484 Z" id="Shape" fill="#FFE1B2" fill-rule="nonzero"></path>
                    <path d="M59.2211599,31.0836484 C61.6827355,30.5284989 63.2954367,31.7146023 63.2954367,34.0440708 C63.2954367,37.1277599 59.9852154,44.6827867 56.5051278,39.9646908 C53.0250402,35.2465948 59.2211599,31.0836484 59.2211599,31.0836484 Z" id="Shape" fill="#FFE1B2" fill-rule="nonzero"></path>
                    <path d="M22.6763533,24.8854537 C22.0494712,26.489044 21.1720191,33.7664961 21.1720191,33.7664961 L18.1631219,32.2863973 L17.316991,22.4801807 L22.6763533,24.8854537 Z" id="Shape" fill="#51362A" fill-rule="nonzero"></path>
                    <path d="M55.773308,24.8854537 C56.4001902,26.489044 57.2776423,33.7664961 57.2776423,33.7664961 L60.2865395,32.2863973 L61.1326704,22.4801807 L55.773308,24.8854537 Z" id="Shape" fill="#51362A" fill-rule="nonzero"></path>
                    <path d="M17.0092273,26.2233521 L61.3015422,26.2233521 L61.3015422,23.6829297 C61.3015422,17.1330447 59.7939227,12.1423803 56.8833555,8.58793441 L56.7883107,8.47186372 L56.7883107,5.92309428 C56.7883107,5.33781645 56.3032001,4.8605212 55.7014616,4.8605212 L54.2019283,4.8605212 C53.9401264,4.8605212 53.6914191,4.96105901 53.4839728,5.14361402 L53.2498616,5.34963452 L52.9849351,5.1851155 C50.0819881,3.3823887 46.4513857,2.33740072 42.1334251,2.01930609 L41.7442819,1.99063877 L41.7442819,1.48257308 C41.7442819,0.897295255 41.2591713,0.42 40.6574328,0.42 L37.6535653,0.42 C37.0518268,0.42 36.5667162,0.897295255 36.5667162,1.48257308 L36.5667162,1.99055385 L36.177664,2.01929938 C31.8591053,2.33838057 28.2320694,3.38787854 25.3322796,5.18913724 L25.0661053,5.35447638 L24.8317972,5.1464246 C24.624342,4.96221654 24.3734513,4.8605212 24.1088412,4.8605212 L22.6093079,4.8605212 C22.0075694,4.8605212 21.5224588,5.33781645 21.5224588,5.92309428 L21.5224588,8.47457461 L21.427401,8.59064963 C18.5133001,12.1490544 17.0092273,17.145802 17.0092273,23.6829297 L17.0092273,26.2233521 Z" id="Shape" stroke="#E9E9E9" stroke-width="0.84" fill="#FFFFFF" fill-rule="nonzero"></path>
                    <g id="VINCI-CONSTRUCTION" transform="translate(28.438675, 13.523916)">
                        <g transform="translate(0.099093, 0.064615)" id="Vinci">
                            <g>
                                <g id="Vinci-logo">
                                    <g id="g3" transform="translate(0.059646, 0.082977)">
                                        <path d="M9.26470923,2.11603839 L9.26470923,3.9040789 C9.26470923,3.9040789 9.88177721,4.06569194 10.8482076,4.06569194 C11.8080911,4.06569194 12.4317059,3.90483234 12.4317059,3.90483234 L12.4317059,3.29781023 C12.4317059,3.29781023 11.7614301,3.43644333 10.8417798,3.43644333 C10.3956434,3.43644333 10.099727,3.38119101 9.9409367,3.36386187 C9.9402225,3.21832223 9.9412938,2.80455768 9.9409367,2.65688329 C10.1188913,2.63829841 10.4180217,2.58405068 10.8483266,2.58405068 C11.7435751,2.58744116 12.431825,2.72808344 12.431825,2.72808344 L12.431825,2.11616396 C12.431825,2.11616396 11.8174947,1.95492764 10.8483266,1.95492764 C9.87189746,1.95480207 9.26470923,2.11603839 9.26470923,2.11603839 L9.26470923,2.11603839 Z" id="path5" fill="#004990"></path>
                                        <polygon id="polygon7" fill="#004990" points="13.1836385 4.02550844 13.8772448 4.02550844 13.8772448 1.98807903 13.1836385 1.98807903"></polygon>
                                        <polygon id="polygon9" fill="#004990" points="3.90488336 4.02550844 4.59837064 4.02550844 4.59837064 1.98807903 3.90488336 1.98807903"></polygon>
                                        <path d="M7.82607426,3.25473853 C7.82607426,3.25473853 7.32506362,2.86345163 6.58801019,2.46061197 C5.94285037,2.10812726 5.37530018,1.99146952 5.37530018,1.99146952 L5.37530018,4.02550844 L6.04652827,4.02550844 L6.04652827,2.93841899 C6.20769919,3.00748439 6.38124956,3.08194945 6.58705792,3.19471442 C7.32411135,3.59767966 7.82559812,4.02550844 7.82559812,4.02550844 L8.49920687,4.02550844 L8.49920687,1.98807903 L7.82619329,1.98807903 L7.82619329,3.25473853 L7.82607426,3.25473853 Z" id="path11" fill="#004990"></path>
                                        <path d="M1.7214578,3.17424595 C1.56659564,3.02154862 0.514937522,1.95329518 0.514937522,1.95329518 L-2.27373675e-13,2.44830577 L1.7214578,4.07988175 L3.44208236,2.44943593 L2.92857324,1.95329518 C2.92857324,1.95329518 1.87703416,3.02154862 1.7214578,3.17424595 L1.7214578,3.17424595 Z" id="path13" fill="#004990"></path>
                                        <path d="M18.6485707,1.67213621 C18.7974812,1.67213621 18.9180618,1.54518144 18.9180618,1.38834018 L18.9180618,0.284172742 C18.9180618,0.127080342 18.7974812,0 18.6485707,0 L17.6025071,0 C17.4538347,0 17.3337302,0.127080342 17.3337302,0.284172742 L17.3337302,1.1304123 C17.3337302,1.39336312 17.1436342,1.61926978 17.0622155,1.70880366 C16.9798446,1.79909097 16.7592761,1.9887069 16.4066998,1.98933477 L15.4418169,1.98933477 L15.4418169,3.66762407 L17.0322192,3.66762407 L17.0322192,2.64960003 C17.0334095,2.27752586 17.2119593,2.04496381 17.2976631,1.9584437 C17.3830099,1.87204916 17.5967935,1.67213621 17.8456919,1.67213621 L18.6485707,1.67213621 L18.6485707,1.67213621 Z" id="path15" fill="#ED1B2D"></path>
                                        <path d="M20.6532084,2.1950241 C20.4881094,2.0194724 20.2577802,1.9129861 20.002335,1.9129861 C19.4791842,1.9129861 19.0619729,2.36216237 19.0619729,2.89848663 C19.0619729,2.99681064 19.1023251,3.18190593 19.1023251,3.26114278 C19.1023251,3.68369748 18.7780788,4.02550844 18.3781273,4.02550844 L17.6025071,4.02550844 C17.4538347,4.02550844 17.3337302,4.15283993 17.3337302,4.30980675 L17.3337302,5.41384862 C17.3337302,5.57081545 17.4538347,5.69802136 17.6025071,5.69802136 L18.6485707,5.69802136 C18.7974812,5.69802136 18.9180618,5.57081545 18.9180618,5.41384862 L18.9180618,4.59510966 C18.9180618,4.17318283 19.2425462,3.83086957 19.6426167,3.83086957 C19.7173696,3.83086957 19.8931816,3.87343898 19.9865036,3.87343898 C20.4946562,3.87343898 20.9199617,3.43368072 20.9199617,2.8820365 C20.9198427,2.61205356 20.816998,2.37145481 20.6532084,2.1950241 L20.6532084,2.1950241 Z" id="path17" fill="#ED1B2D"></path>
                                    </g>
                                </g>
                            </g>
                        </g>
                    </g>
                    <path d="M57.2776423,8.32184399 L57.2776423,5.92309428 C57.2776423,5.10431625 56.6029781,4.4405212 55.7707932,4.4405212 L54.27126,4.4405212 C53.8855743,4.4405212 53.5421837,4.59392961 53.2758388,4.82831607 C50.2360776,2.94062781 46.4992472,1.91468094 42.2336136,1.60044113 L42.2336136,1.48257308 C42.2336136,0.663795049 41.5589494,0 40.7267644,0 L37.7228969,0 C36.890712,0 39.3517394,0.663795049 39.3517394,1.48257308 L39.3517394,1.60044113 C50.7249333,5.73033882 54.3067685,14.0779758 50.0972447,26.6433521 C57.2521634,26.3518156 60.8597649,26.1902446 60.9200492,26.1586391 C61.500599,25.8542721 61.7908738,25.0290356 61.7908738,23.6829297 C61.7908738,16.831737 60.1541673,11.8347167 57.2776423,8.32184399 Z" id="Shape" fill="#F7F7F7" fill-rule="nonzero"></path>
                    <path d="M39.2247164,20.7222823 C29.5928617,20.7222823 15.1784586,23.3729637 15.1784586,26.6429022 L63.2712028,26.6429022 C63.2712028,23.3731887 48.8567996,20.7222823 39.2247164,20.7222823 Z" id="Shape" fill="#E4E4E4" fill-rule="nonzero"></path>
                </g>
                <g id="doctor-1" transform="translate(0.000000, 69.000000)" fill-rule="nonzero">
                    <g id="Group">
                        <path d="M47.7021934,2.60980475 L38.1727195,53.8976778 L44.9796048,55.2472939 C59.3871878,44.7873589 65.5699051,2.60980475 47.7021934,2.60980475 Z" id="Shape" fill="#80362D"></path>
                        <path d="M47.7021934,2.60980475 C45.3197215,1.17568381 32.745955,-2.46643368 23.1976547,2.60980475 C11.4559742,8.85208687 1.18896023,31.1779779 17.7522707,53.8976778 C17.7758554,53.9298799 30.00454,52.5480617 30.00454,52.5480617 L47.7021934,2.60980475 Z" id="Shape" fill="#80362D"></path>
                        <path d="M45.0534622,47.6024776 L44.9793979,47.6024776 L44.9793979,44.4499549 L25.9204502,44.4499549 L25.9204502,47.5991959 C25.9204502,50.6844429 25.9074165,54.0379723 23.1976547,56.0664986 L23.1976547,86.2901051 L35.4499241,86.2901051 C35.4499241,86.2901051 41.8655924,86.2901051 47.7021934,86.2901051 L47.7021934,56.0193236 C45.0617376,53.9856695 45.0534622,50.6612656 45.0534622,47.6024776 Z" id="Shape" fill="#FFD7A3"></path>
                        <path d="M35.4499241,72.7931237 C32.5225207,72.7931237 29.7602104,72.4083395 27.2817445,71.7400949 L27.2817445,86.2899 L46.3406922,86.2899 L46.3406922,70.8495124 C43.2523333,72.0713457 39.5025675,72.7931237 35.4499241,72.7931237 Z" id="Shape" fill="#545465"></path>
                        <path d="M46.3406922,61.9957847 C46.8374198,62.1301309 47.2847022,62.2017139 47.7019865,62.2365824 L47.7019865,56.0193236 C45.0617376,53.9856695 45.0532554,50.6610605 45.0532554,47.6022725 L45.0513934,47.523921 L45.0513934,44.3713982 L30.0043331,44.4497498 L25.9202433,45.7993659 C28.6430388,48.8364124 36.9814836,59.4651519 46.3406922,61.9957847 Z" id="Shape" fill="#FDC88E"></path>
                        <path d="M54.5088717,26.9039201 C54.5088717,37.712335 43.6665144,51.1982405 35.4499241,51.1982405 C27.2333337,51.1982405 16.3909764,37.712335 16.3909764,26.9039201 C16.3909764,16.0955052 24.9240986,12.0573226 35.4499241,12.0573226 C45.9757495,12.0573226 54.5088717,16.0955052 54.5088717,26.9039201 Z" id="Shape" fill="#FFE1B2"></path>
                        <g id="Group-9" transform="translate(23.698608, 23.618423)">
                            <g id="Group">
                                <g transform="translate(1.203108, 4.174754)" id="Oval">
                                    <ellipse fill="#3B2519" cx="2.13311026" cy="2.23707149" rx="1.85669623" ry="2.01610775"></ellipse>
                                    <ellipse fill="#FFFFFF" cx="1.32371944" cy="1.3469544" rx="1" ry="1"></ellipse>
                                </g>
                                <path d="M0.366045571,2.06501201 C1.24401354,2.3980977 2.65345442,0.932461018 5.8807913,2.20755002 C6.46911105,2.44014343 6.82011777,0.21917456 3.36088185,0.21917456 C0.366045571,0.21917456 -0.164525002,1.86372925 0.366045571,2.06501201 Z" id="Shape" fill="#80362D"></path>
                                <g transform="translate(18.347395, 4.174754)" id="Oval">
                                    <ellipse fill="#3B2519" cx="1.92677726" cy="2.23707149" rx="1.85669623" ry="2.01610775"></ellipse>
                                    <ellipse fill="#FFFFFF" cx="1.11738644" cy="1.3469544" rx="1" ry="1"></ellipse>
                                </g>
                                <path d="M23.0151529,2.06501201 C22.1371849,2.3980977 20.7274433,0.932461018 17.5004072,2.20755002 C16.9120874,2.44014343 16.5610807,0.21917456 20.0200158,0.21917456 C23.0151529,0.21917456 23.5454227,1.86372925 23.0151529,2.06501201 Z" id="Shape" fill="#80362D"></path>
                            </g>
                            <path d="M11.6902985,13.5032403 C9.85585972,13.5032403 8.75080514,12.144358 8.75080514,12.8018817 C8.75080514,13.4591072 9.28137571,14.7085512 11.6902985,14.7085512 C14.0998228,14.7085512 14.6300925,13.4594053 14.6300925,12.8018817 C14.6303933,12.144358 13.525038,13.5032403 11.6902985,13.5032403 Z" id="Shape" fill="#FCBC85"></path>
                            <path d="M11.6902985,20.5388864 C11.0559598,20.5388864 10.6736723,20.0692266 10.6736723,20.2961543 C10.6736723,20.5236783 10.8571462,20.9557653 11.6902985,20.9557653 C12.5237514,20.9557653 12.7072254,20.5236783 12.7072254,20.2961543 C12.7072254,20.0692266 12.3252386,20.5388864 11.6902985,20.5388864 Z" id="Shape" fill="#FCBC85"></path>
                            <path d="M11.6902985,18.8639156 C8.78238672,18.8639156 7.03066165,17.6899153 7.03066165,17.9875156 C7.03066165,18.2851159 7.87133328,19.455836 11.6902985,19.455836 C15.5092636,19.455836 16.350236,18.2848177 16.350236,17.9875156 C16.350236,17.6902135 14.5982102,18.8639156 11.6902985,18.8639156 Z" id="Shape" fill="#F7945E"></path>
                        </g>
                        <path d="M38.1725126,5.30903695 C37.4076639,5.30903695 34.9242327,6.16105903 32.8944974,6.90765517 L32.7271286,6.65865305 C32.7271286,6.65865305 32.4470081,6.87688884 31.9620729,7.25510952 C30.8331089,7.68009502 30.00454,8.00826915 30.00454,8.00826915 L30.3229339,8.5345784 C25.1558083,12.57071 13.3667514,21.8036839 12.3066797,22.8548667 C10.9453854,24.2044828 20.4748593,58.6389735 20.4748593,39.0510803 C20.4748593,22.6862672 29.64539,19.4453426 38.1725126,17.4561972 C42.0296511,16.5563847 43.1642009,14.3069562 43.6178967,12.0575277 C44.0717994,9.80809913 39.5340138,5.30903695 38.1725126,5.30903695 Z" id="Shape" fill="#80362D"></path>
                        <path d="M42.2566024,13.4071438 C44.7524466,22.2924583 49.7441348,26.3134118 54.4238426,27.4944284 C56.9881652,28.1415468 55.8703729,20.1556345 55.8703729,20.1556345 C55.8703729,20.1556345 52.239979,10.9327108 51.7862831,10.7079116 C51.3325873,10.4829072 47.7021934,2.60980475 47.7021934,2.60980475 L39.5340138,9.35829546 L42.2566024,13.4071438 Z" id="Shape" fill="#80362D"></path>
                        <path d="M24.6925959,54.4492155 C23.417572,56.5029702 20.8180792,57.9467312 15.4833779,57.9467312 L15.0296821,57.9467312 C6.75930201,57.9467312 0.0546172788,64.5936931 0.0546172788,72.7933288 L0.0546172788,82.2410517 C0.0546172788,84.4771481 1.88305482,86.2901051 4.13870705,86.2901051 L32.0737901,86.2901051 L24.6925959,54.4492155 Z" id="Shape" fill="#E4EBF0"></path>
                        <path d="M46.2072523,54.4492155 C47.4822761,56.5029702 50.0817689,57.9467312 55.4164702,57.9467312 L55.870166,57.9467312 C64.1405461,57.9467312 70.8452308,64.5936931 70.8452308,72.7933288 L70.8452308,82.2410517 C70.8452308,84.4771481 69.0167933,86.2901051 66.7611411,86.2901051 L38.826058,86.2901051 L46.2072523,54.4492155 Z" id="Shape" fill="#E4EBF0"></path>
                    </g>
                    <path d="M52.4814121,27.0273956 C54.7089282,26.521187 56.1682853,27.6027259 56.1682853,29.7268329 C56.1682853,32.5386699 53.1728172,39.4276601 50.0236346,35.1255024 C46.874452,30.8233447 52.4814121,27.0273956 52.4814121,27.0273956 Z" id="Shape" fill="#FFE1B2"></path>
                </g>
                <g id="Group-4" transform="translate(25.000000, 0.000000)" fill-rule="nonzero">
                    <path d="M87.5623653,9.49450549 L32.9514046,9.49450549 C29.18136,9.49450549 26.125,12.5490978 26.125,16.3169619 L26.125,52.7032122 C26.125,56.4710763 29.18136,59.5256686 32.9514046,59.5256686 L51.1550582,59.5256686 L69.4490271,71.7145021 C70.2776083,72.2665701 71.3660879,71.5632354 71.202305,70.5816585 L69.3587117,59.5256686 L87.5623653,59.5256686 C91.3324099,59.5256686 94.3887699,56.4710763 94.3887699,52.7032122 L94.3887699,16.3166859 C94.3887699,12.5488217 91.3324099,9.49450549 87.5623653,9.49450549 Z" id="Shape" fill="#C7CFE2"></path>
                    <g id="Group-2">
                        <path d="M18.438142,15.918881 L18.438142,52.3051312 C18.438142,53.106734 18.6019249,53.8647233 18.8562994,54.5793754 L70.7738186,54.5793754 C77.0572263,54.5793754 82.1510676,49.4884802 82.1510676,43.2087067 L82.1510676,9.51434003 C81.436002,9.26038874 80.6778501,9.09642454 79.8755073,9.09642454 L25.2648228,9.09642454 C21.4947782,9.09670058 18.438142,12.1510168 18.438142,15.918881 Z" id="Shape" fill="#AFB9D2"></path>
                        <path d="M70.7738186,0 L7.06116929,0 C3.29112467,0 0.234764683,3.05459228 0.234764683,6.82245643 L0.234764683,43.2087067 C0.234764683,46.9765708 3.29112467,50.0311631 7.06116929,50.0311631 L32.0912274,50.0311631 L28.2996397,65.1881902 C28.041951,66.2186252 29.2130124,67.0083584 30.0725274,66.3836935 L52.5701651,50.0311631 L70.7738186,50.0311631 C74.5438632,50.0311631 77.6002232,46.9765708 77.6002232,43.2087067 L77.6002232,6.82245643 C77.6002232,3.05459228 74.5441394,0 70.7738186,0 Z" id="Shape" fill="#E2E7F2"></path>
                        <path d="M22.9892626,15.918881 L16.162858,15.918881 C14.9050717,15.918881 13.8872977,14.9005915 13.8872977,13.6446368 C13.8872977,12.3886821 14.9050717,11.3703927 16.162858,11.3703927 L22.9892626,11.3703927 C24.2470489,11.3703927 25.2648228,12.3886821 25.2648228,13.6446368 C25.2648228,14.9005915 24.2470489,15.918881 22.9892626,15.918881 Z" id="Shape" fill="#D23C69"></path>
                        <path d="M61.6721299,15.918881 L32.0912274,15.918881 C30.8334411,15.918881 29.8156672,14.9005915 29.8156672,13.6446368 C29.8156672,12.3886821 30.8334411,11.3703927 32.0912274,11.3703927 L61.6721299,11.3703927 C62.9299163,11.3703927 63.9476902,12.3886821 63.9476902,13.6446368 C63.9476902,14.9005915 62.9299163,15.918881 61.6721299,15.918881 Z" id="Shape" fill="#FF507D"></path>
                        <path d="M61.6721299,27.2898257 L16.162858,27.2898257 C14.9050717,27.2898257 13.8872977,26.2715363 13.8872977,25.0155815 C13.8872977,23.7596268 14.9050717,22.7413374 16.162858,22.7413374 L61.6721299,22.7413374 C62.9299163,22.7413374 63.9476902,23.7596268 63.9476902,25.0155815 C63.9476902,26.2715363 62.9299163,27.2898257 61.6721299,27.2898257 Z" id="Shape" fill="#7F8499"></path>
                        <path d="M45.7437605,38.6604944 L16.162858,38.6604944 C14.9050717,38.6604944 13.8872977,37.642205 13.8872977,36.3862502 C13.8872977,35.1302955 14.9050717,34.1120061 16.162858,34.1120061 L45.7437605,34.1120061 C47.0015468,34.1120061 48.0193207,35.1302955 48.0193207,36.3862502 C48.0193207,37.642205 47.0015468,38.6604944 45.7437605,38.6604944 Z" id="Shape" fill="#707487"></path>
                        <path d="M61.6721299,38.6604944 L54.8457253,38.6604944 C53.587939,38.6604944 52.5701651,37.642205 52.5701651,36.3862502 C52.5701651,35.1302955 53.587939,34.1120061 54.8457253,34.1120061 L61.6721299,34.1120061 C62.9299163,34.1120061 63.9476902,35.1302955 63.9476902,36.3862502 C63.9476902,37.642205 62.9299163,38.6604944 61.6721299,38.6604944 Z" id="Shape" fill="#7F8499"></path>
                    </g>
                </g>
            </g>
        </g>
    </g>
</svg>