<?xml version="1.0" encoding="UTF-8"?>
<svg width="312px" height="264px" viewBox="0 0 312 264" version="1.1" xmlns="http://www.w3.org/2000/svg" xmlns:xlink="http://www.w3.org/1999/xlink">
    <!-- Generator: sketchtool 51.1 (57501) - http://www.bohemiancoding.com/sketch -->
    <title>CCBBA695-4AFD-4F38-8394-67315BEC4AE5</title>
    <desc>Created with sketchtool.</desc>
    <defs></defs>
    <g id="ASSETS" stroke="none" stroke-width="1" fill="none" fill-rule="evenodd">
        <g transform="translate(-125.000000, -657.000000)" id="onboarding1">
            <g transform="translate(125.000000, 657.000000)">
                <path d="M161.699219,263.398438 C234.434689,263.398438 293.398438,204.434689 293.398438,131.699219 C293.398438,58.9637487 234.434689,0 161.699219,0 C88.9637487,0 30,58.9637487 30,131.699219 C30,204.434689 88.9637487,263.398438 161.699219,263.398438 Z" id="Oval-4-Copy" fill="#1E7BE2" opacity="0.2"></path>
                <path d="M161.505859,248.011719 C225.850269,248.011719 278.011719,195.850269 278.011719,131.505859 C278.011719,67.16145 225.850269,15 161.505859,15 C97.16145,15 45,67.16145 45,131.505859 C45,195.850269 97.16145,248.011719 161.505859,248.011719 Z" id="Oval-4-Copy" fill="#1E7BE2" opacity="0.2"></path>
                <g id="doctor-1" transform="translate(0.000000, 55.000000)" fill-rule="nonzero">
                    <g id="Group">
                        <path d="M95.4257405,5.26595304 L76.362527,108.752442 L89.9793446,111.47564 C118.80096,90.3700283 131.169162,5.26595304 95.4257405,5.26595304 Z" id="Shape" fill="#80362D"></path>
                        <path d="M95.4257405,5.26595304 C90.6597302,2.3722448 65.5065686,-4.97666499 46.4056939,5.26595304 C22.9170767,17.8613645 2.3784527,62.9095979 35.5124881,108.752442 C35.5596681,108.817418 60.0225114,106.029244 60.0225114,106.029244 L95.4257405,5.26595304 Z" id="Shape" fill="#80362D"></path>
                        <path d="M90.1270926,96.0502551 L89.9789307,96.0502551 L89.9789307,89.6892288 L51.8525037,89.6892288 L51.8525037,96.0436333 C51.8525037,102.268914 51.8264305,109.035523 46.4056939,113.128597 L46.4056939,174.112505 L70.9157172,174.112505 C70.9157172,174.112505 83.7499258,174.112505 95.4257405,174.112505 L95.4257405,113.033409 C90.143647,108.929988 90.1270926,102.222147 90.1270926,96.0502551 Z" id="Shape" fill="#FFD7A3"></path>
                        <path d="M70.9157172,146.878869 C65.0596,146.878869 59.5337429,146.102468 54.5757016,144.754113 L54.5757016,174.112091 L92.7021287,174.112091 L92.7021287,142.957133 C86.5240285,145.422497 79.0228183,146.878869 70.9157172,146.878869 Z" id="Shape" fill="#545465"></path>
                        <path d="M92.7021287,125.092458 C93.6958063,125.363536 94.5905713,125.507973 95.4253267,125.578329 L95.4253267,113.033409 C90.143647,108.929988 90.1266787,102.221734 90.1266787,96.0498412 L90.122954,95.8917468 L90.122954,89.5307205 L60.0220976,89.688815 L51.8520898,92.4120129 C57.2988996,98.5400361 73.9795218,119.986255 92.7021287,125.092458 Z" id="Shape" fill="#FDC88E"></path>
                        <path d="M109.042144,54.2855859 C109.042144,76.0943458 87.352576,103.305633 70.9157172,103.305633 C54.4788584,103.305633 32.7892901,76.0943458 32.7892901,54.2855859 C32.7892901,32.4768259 49.8593545,24.3287527 70.9157172,24.3287527 C91.9720799,24.3287527 109.042144,32.4768259 109.042144,54.2855859 Z" id="Shape" fill="#FFE1B2"></path>
                        <g id="Group-9" transform="translate(47.407824, 47.656250)">
                            <g id="Group">
                                <g transform="translate(2.406754, 8.423640)" id="Oval">
                                    <ellipse fill="#3B2519" cx="4.26717541" cy="4.51386773" rx="3.71422361" ry="4.06801649"></ellipse>
                                    <circle fill="#FFFFFF" cx="2.64803144" cy="2.71782732" r="1.11071712"></circle>
                                </g>
                                <path d="M0.732255002,4.16669342 C2.48858397,4.83877956 5.30809665,1.88148019 11.7642151,4.45430056 C12.941118,4.92361765 13.6432886,0.442241106 6.72326819,0.442241106 C0.732255002,0.442241106 -0.329123653,3.76055363 0.732255002,4.16669342 Z" id="Shape" fill="#80362D"></path>
                                <g transform="translate(36.703003, 8.423640)" id="Oval">
                                    <ellipse fill="#3B2519" cx="3.85441704" cy="4.51386773" rx="3.71422361" ry="4.06801649"></ellipse>
                                    <circle fill="#FFFFFF" cx="2.23527308" cy="2.71782732" r="1.11071712"></circle>
                                </g>
                                <path d="M46.0406085,4.16669342 C44.2842795,4.83877956 41.4641651,1.88148019 35.0086483,4.45430056 C33.8317455,4.92361765 33.1295749,0.442241106 40.0489936,0.442241106 C46.0406085,0.442241106 47.1013854,3.76055363 46.0406085,4.16669342 Z" id="Shape" fill="#80362D"></path>
                            </g>
                            <path d="M23.38583,27.246264 C19.7161314,27.246264 17.5055276,24.5043691 17.5055276,25.8310924 C17.5055276,27.1572141 18.5669062,29.6782892 23.38583,29.6782892 C28.2059573,29.6782892 29.2667342,27.1578158 29.2667342,25.8310924 C29.2673359,24.5043691 27.0561304,27.246264 23.38583,27.246264 Z" id="Shape" fill="#FCBC85"></path>
                            <path d="M23.38583,41.4424915 C22.1168688,41.4424915 21.3521226,40.494832 21.3521226,40.952717 C21.3521226,41.4118054 21.7191527,42.2836521 23.38583,42.2836521 C25.0531091,42.2836521 25.4201391,41.4118054 25.4201391,40.952717 C25.4201391,40.494832 24.6559946,41.4424915 23.38583,41.4424915 Z" id="Shape" fill="#FCBC85"></path>
                            <path d="M23.38583,38.0628067 C17.5687049,38.0628067 14.0644706,35.6939588 14.0644706,36.294444 C14.0644706,36.8949292 15.7461901,39.2571586 23.38583,39.2571586 C31.0254699,39.2571586 32.7077912,36.8943275 32.7077912,36.294444 C32.7077912,35.6945605 29.2029552,38.0628067 23.38583,38.0628067 Z" id="Shape" fill="#F7945E"></path>
                        </g>
                        <path d="M76.3621131,10.712349 C74.8320732,10.712349 69.8640993,12.4315229 65.80372,13.9379728 L65.4689074,13.435547 C65.4689074,13.435547 64.9085411,13.8758939 63.9384536,14.6390515 C61.6800202,15.4965691 60.0225114,16.1587449 60.0225114,16.1587449 L60.6594418,17.2207094 C50.3228776,25.364644 26.7394865,43.9945462 24.6188685,46.1155781 C21.8956705,48.8387761 40.958884,118.319227 40.958884,78.7956092 C40.958884,45.7753853 59.3040507,39.2359854 76.3621131,35.2223723 C84.0781166,33.4067691 86.3477242,28.8679678 87.2553189,24.3291666 C88.1633275,19.7903653 79.085725,10.712349 76.3621131,10.712349 Z" id="Shape" fill="#80362D"></path>
                        <path d="M84.5321209,27.0523645 C89.5249264,44.9807743 99.5105375,53.0940833 108.872048,55.4770884 C114.001841,56.7828163 111.765756,40.6691821 111.765756,40.6691821 C111.765756,40.6691821 104.503343,22.059559 103.595748,21.6059686 C102.688154,21.1519643 95.4257405,5.26595304 95.4257405,5.26595304 L79.085725,18.8827706 L84.5321209,27.0523645 Z" id="Shape" fill="#80362D"></path>
                        <path d="M49.3962453,109.865312 C46.8456269,114.00929 41.6454776,116.92245 30.9736869,116.92245 L30.0660922,116.92245 C13.5216298,116.92245 0.109259007,130.334407 0.109259007,146.879283 L0.109259007,165.942497 C0.109259007,170.454397 3.76695258,174.112505 8.27926679,174.112505 L64.1619379,174.112505 L49.3962453,109.865312 Z" id="Shape" fill="#E4EBF0"></path>
                        <path d="M92.4351891,109.865312 C94.9858075,114.00929 100.185957,116.92245 110.857748,116.92245 L111.765342,116.92245 C128.309805,116.92245 141.722175,130.334407 141.722175,146.879283 L141.722175,165.942497 C141.722175,170.454397 138.064482,174.112505 133.552168,174.112505 L77.6694965,174.112505 L92.4351891,109.865312 Z" id="Shape" fill="#E4EBF0"></path>
                    </g>
                    <path d="M104.986317,54.5347295 C109.442347,53.5133233 112.361714,55.6956065 112.361714,59.9815393 C112.361714,65.6551443 106.369437,79.5554559 100.069662,70.8747451 C93.7698872,62.1940342 104.986317,54.5347295 104.986317,54.5347295 Z" id="Shape" fill="#FFE1B2"></path>
                </g>
                <g id="039-analytics" transform="translate(135.000000, 34.000000)">
                    <path d="M9.635476,128.520242 L169.894449,128.520242 C173.434947,128.520242 176.304761,125.650039 176.304761,122.109929 L176.304761,6.72314302 C176.304761,3.18264477 173.434559,0.312830694 169.894449,0.312830694 L16.0457883,0.312830694 C12.5052901,0.312830694 9.635476,3.1830329 9.635476,6.72314302 L9.635476,128.520242 Z" id="Shape" fill="#DFE6F4" fill-rule="nonzero"></path>
                    <path d="M141.047655,19.5441558 L147.457967,19.5441558 C149.228216,19.5441558 150.663123,20.9790628 150.663123,22.749312 L150.663123,96.46868 L137.842499,96.46868 L137.842499,22.749312 C137.842499,20.9786747 139.277406,19.5441558 141.047655,19.5441558 Z" id="Shape" fill="#13C9A0" fill-rule="nonzero"></path>
                    <path d="M115.406406,45.1854051 L121.816718,45.1854051 C123.586967,45.1854051 125.021874,46.6203122 125.021874,48.3905613 L125.021874,96.4682919 L112.20125,96.4682919 L112.20125,48.3901732 C112.20125,46.6207003 113.636157,45.1854051 115.406406,45.1854051 Z" id="Shape" fill="#8696E9" fill-rule="nonzero"></path>
                    <path d="M64.1235189,58.0060298 L70.5338313,58.0060298 C72.3040804,58.0060298 73.7389874,59.4409368 73.7389874,61.2111859 L73.7389874,96.4682919 L60.9183628,96.4682919 L60.9183628,61.2115741 C60.9183628,59.4409368 62.3532698,58.0060298 64.1235189,58.0060298 Z" id="Shape" fill="#FF3100" fill-rule="nonzero"></path>
                    <path d="M38.4818815,77.2369668 L44.8921938,77.2369668 C46.6624429,77.2369668 48.09735,78.6718738 48.09735,80.4421229 L48.09735,96.4679037 L35.2767253,96.4679037 L35.2767253,80.4421229 C35.2767253,78.6722619 36.7116324,77.2369668 38.4818815,77.2369668 Z" id="Shape" fill="#004990" fill-rule="nonzero"></path>
                    <path d="M89.7647682,32.3643923 L96.1750806,32.3643923 C97.9453297,32.3643923 99.3802367,33.7992994 99.3802367,35.5695485 L99.3802367,96.4679037 L86.5596121,96.4679037 L86.5596121,35.5699366 C86.5596121,33.7992994 87.9945191,32.3643923 89.7647682,32.3643923 Z" id="Shape" fill="#50CFE3" fill-rule="nonzero"></path>
                    <g id="Group" transform="translate(35.026383, 105.958783)" fill="#FFFFFF" fill-rule="nonzero">
                        <path d="M112.431584,6.53567748 L106.021272,6.53567748 C104.24947,6.53567748 102.816116,5.10193482 102.816116,3.33052132 C102.816116,1.55910781 104.249858,0.125365154 106.021272,0.125365154 L112.431584,0.125365154 C114.203386,0.125365154 115.63674,1.55910781 115.63674,3.33052132 C115.63674,5.10193482 114.203386,6.53567748 112.431584,6.53567748 Z" id="Shape"></path>
                        <path d="M61.1486974,6.53567748 L54.7383851,6.53567748 C52.9665835,6.53567748 51.5332289,5.10193482 51.5332289,3.33052132 C51.5332289,1.55910781 52.9669716,0.125365154 54.7383851,0.125365154 L61.1486974,0.125365154 C62.9204991,0.125365154 64.3538536,1.55910781 64.3538536,3.33052132 C64.3538536,5.10193482 62.9204991,6.53567748 61.1486974,6.53567748 Z" id="Shape"></path>
                        <path d="M86.7903349,6.53567748 L80.3800225,6.53567748 C78.6082209,6.53567748 77.1748664,5.10193482 77.1748664,3.33052132 C77.1748664,1.55910781 78.608609,0.125365154 80.3800225,0.125365154 L86.7903349,0.125365154 C88.5621365,0.125365154 89.995491,1.55910781 89.995491,3.33052132 C89.995491,5.10193482 88.5617484,6.53567748 86.7903349,6.53567748 Z" id="Shape"></path>
                        <path d="M35.5074481,6.53567748 L29.0971358,6.53567748 C27.3253342,6.53567748 25.8919796,5.10193482 25.8919796,3.33052132 C25.8919796,1.55910781 27.3257223,0.125365154 29.0971358,0.125365154 L35.5074481,0.125365154 C37.2792497,0.125365154 38.7126043,1.55910781 38.7126043,3.33052132 C38.7126043,5.10193482 37.2788616,6.53567748 35.5074481,6.53567748 Z" id="Shape"></path>
                        <path d="M9.86581067,6.53567748 L3.45549834,6.53567748 C1.68369671,6.53567748 0.25034218,5.10193482 0.25034218,3.33052132 C0.25034218,1.55910781 1.68408484,0.125365154 3.45549834,0.125365154 L9.86581067,0.125365154 C11.6376123,0.125365154 13.0709668,1.55910781 13.0709668,3.33052132 C13.0709668,5.10193482 11.6376123,6.53567748 9.86581067,6.53567748 Z" id="Shape"></path>
                    </g>
                    <path d="M157.073824,99.673448 L32.0715692,99.673448 C30.2997675,99.673448 28.866413,98.2397054 28.866413,96.4682919 C28.866413,94.6964902 30.3001556,93.2631357 32.0715692,93.2631357 L157.073824,93.2631357 C158.845626,93.2631357 160.27898,94.6968784 160.27898,96.4682919 C160.27898,98.2400935 158.845237,99.673448 157.073824,99.673448 Z" id="Shape" fill="#AFB9D2" fill-rule="nonzero"></path>
                    <g id="Group" transform="translate(0.094916, 112.168822)"></g>
                </g>
                <g id="builder" transform="translate(80.000000, 34.000000)">
                    <path d="M47.8860475,126.08814 C54.9842784,121.517894 54.1903339,107.915684 54.1903339,104.741836 L111.322507,104.741836 C111.322507,107.915684 110.442222,121.517894 117.539971,126.08814 L82.7564206,165.047858 L47.8860475,126.08814 Z" id="Shape" fill="#FFD7A3" fill-rule="nonzero"></path>
                    <path d="M104.974327,139.656102 L117.539971,126.08814 C110.44174,121.518376 111.322507,107.915684 111.322507,104.741836 L54.1903339,104.741836 C58.2893259,116.527041 85.4016162,136.74658 104.974327,139.656102 Z" id="Shape" fill="#FDC88E" fill-rule="nonzero"></path>
                    <path d="M127.192716,63.4798711 C127.192716,88.8976734 112.556835,120.612045 82.7569029,120.612045 C52.9569704,120.612045 38.3210896,88.8976734 38.3210896,63.4798711 C38.3210896,38.0620688 58.216009,28.5656044 82.7569029,28.5656044 C107.297797,28.5656044 127.192716,38.0620688 127.192716,63.4798711 Z" id="Shape" fill="#FFE1B2" fill-rule="nonzero"></path>
                    <path d="M155.758803,203.136456 C161.017842,203.136456 165.280832,198.873466 165.280832,193.614427 L165.280832,163.003185 C165.280832,149.037286 154.3981,134.127914 141.096875,129.872159 L121.239579,123.51819 C110.556057,131.687234 95.2883001,142.830916 82.7569029,142.830916 C70.2255058,142.830916 54.9577493,131.687234 44.2742268,123.51819 L24.4164482,129.871676 C11.1152239,134.127431 0.232491664,149.036803 0.232491664,163.002703 L0.232491664,193.614427 C0.232491664,198.873466 4.49548196,203.136456 9.75452057,203.136456 L155.758803,203.136456 Z" id="Shape" fill="#004990" fill-rule="nonzero"></path>
                    <g id="Group-7" transform="translate(56.000000, 55.000000)" fill-rule="nonzero">
                        <g id="Group" transform="translate(0.622560, 0.564731)">
                            <g transform="translate(3.230272, 11.628978)" id="Oval">
                                <ellipse fill="#3B2519" cx="4.18126352" cy="4.69164643" rx="3.98809328" ry="4.36797322"></ellipse>
                                <circle fill="#FFFFFF" cx="2.44273136" cy="2.7631743" r="1.19261626"></circle>
                            </g>
                            <path d="M1.03174874,5.49598405 C2.91758128,6.43922335 5.94563786,2.29155465 12.8771546,5.899768 C14.1408368,6.55745129 14.8947822,0.273927029 7.4651576,0.273927029 C1.03174874,0.273927029 -0.107891071,4.9268102 1.03174874,5.49598405 Z" id="Shape" fill="#51362A"></path>
                            <g transform="translate(39.409313, 11.628978)" id="Oval">
                                <ellipse fill="#3B2519" cx="4.38412458" cy="4.69164643" rx="3.98809328" ry="4.36797322"></ellipse>
                                <circle fill="#FFFFFF" cx="2.64559242" cy="2.7631743" r="1.19261626"></circle>
                            </g>
                            <path d="M49.6809307,5.49598405 C47.7950982,6.43922335 44.7670416,2.29155465 37.8355249,5.899768 C36.5718426,6.55745129 35.8178973,0.273927029 43.2481679,0.273927029 C49.6809307,0.273927029 50.8199245,4.9268102 49.6809307,5.49598405 Z" id="Shape" fill="#51362A"></path>
                        </g>
                        <path d="M25.9788996,33.2491724 C22.0379683,33.2491724 19.6643647,30.305749 19.6643647,31.7296527 C19.6643647,33.1542024 20.8040045,35.860524 25.9788996,35.860524 C31.1537947,35.860524 32.2934345,33.1542024 32.2934345,31.7296527 C32.2934345,30.3051029 29.9191849,33.2491724 25.9788996,33.2491724 Z" id="Shape" fill="#FCBC85"></path>
                        <path d="M25.9788996,50.3446934 C24.615725,50.3446934 23.79459,49.3265118 23.79459,49.8194512 C23.79459,50.3123907 24.1886831,51.2478773 25.9788996,51.2478773 C27.7691161,51.2478773 28.1625632,50.3123907 28.1625632,49.8194512 C28.1625632,49.3265118 27.3414281,50.3446934 25.9788996,50.3446934 Z" id="Shape" fill="#FCBC85"></path>
                        <path d="M25.9788996,46.7158063 C19.7328465,46.7158063 15.9695801,44.1722905 15.9695801,44.8170527 C15.9695801,45.4618149 17.775948,47.9982241 25.9788996,47.9982241 C34.1818512,47.9982241 35.9882191,45.4618149 35.9882191,44.8170527 C35.987573,44.1722905 32.2249527,46.7158063 25.9788996,46.7158063 Z" id="Shape" fill="#F7945E"></path>
                    </g>
                    <path d="M28.7985784,128.469491 L28.7985784,203.135973 L136.714745,203.135973 L136.714745,128.469491 L124.018867,124.406675 L124.018867,171.487202 C124.018867,172.940033 123.054654,174.224526 121.644269,174.571816 C110.899971,177.217976 97.4226893,178.802007 82.7569029,178.802007 C68.0911166,178.802007 54.6138353,177.217976 43.8695369,174.571816 C42.4586695,174.224526 41.4949385,172.940033 41.4949385,171.487202 L41.4949385,124.407157 L28.7985784,128.469491 Z" id="Shape" fill="#F5A623" fill-rule="nonzero"></path>
                    <path d="M39.8472382,66.6542023 C35.089359,65.4637678 31.9724272,68.007188 31.9724272,73.0023824 C31.9724272,79.6148891 38.3707715,95.8155063 45.0971122,85.6982601 C51.823453,75.581014 39.8472382,66.6542023 39.8472382,66.6542023 Z" id="Shape" fill="#FFE1B2" fill-rule="nonzero"></path>
                    <path d="M124.944975,66.6542023 C130.138415,65.4637678 133.540896,68.007188 133.540896,73.0023824 C133.540896,79.6148891 126.556982,95.8155063 119.214683,85.6982601 C111.872384,75.581014 124.944975,66.6542023 124.944975,66.6542023 Z" id="Shape" fill="#FFE1B2" fill-rule="nonzero"></path>
                    <path d="M47.8426362,53.3631073 C46.5200384,56.8017651 44.6687873,72.4071651 44.6687873,72.4071651 L38.3206073,69.2333163 L36.5354379,48.2053618 L47.8426362,53.3631073 Z" id="Shape" fill="#51362A" fill-rule="nonzero"></path>
                    <path d="M117.670687,53.3631073 C118.993285,56.8017651 120.844536,72.4071651 120.844536,72.4071651 L127.192716,69.2333163 L128.977886,48.2053618 L117.670687,53.3631073 Z" id="Shape" fill="#51362A" fill-rule="nonzero"></path>
                    <path d="M35.5,56.6326558 L129.720289,56.6326558 L129.720289,50.7844757 C129.720289,36.6512067 126.512518,25.8586664 120.308903,18.1586306 L120.19826,18.0212986 L120.19826,12.7011836 C120.19826,11.2215798 118.998709,10.0220289 117.519105,10.0220289 L114.355386,10.0220289 C113.707462,10.0220289 113.094284,10.2739597 112.588575,10.7262758 L112.30739,10.9777738 L111.988371,10.7764196 C105.806917,6.87488806 98.0884113,4.61691108 88.920992,3.93050929 L88.4583246,3.8958675 L88.4583246,3.17915468 C88.4583246,1.69955088 87.2587737,0.5 85.7791699,0.5 L79.4416015,0.5 C77.9619977,0.5 76.7624468,1.69955088 76.7624468,3.17915468 L76.7624468,3.89576488 L76.2998893,3.93050104 C67.1311168,4.61903796 59.4200849,6.8867918 53.2454756,10.7850689 L52.9249587,10.9874241 L52.6435606,10.7334677 C52.1375334,10.2767879 51.5191476,10.0220289 50.8649031,10.0220289 L47.7011836,10.0220289 C46.2215798,10.0220289 45.0220289,11.2215798 45.0220289,12.7011836 L45.0220289,18.0271005 L44.9113705,18.1644378 C38.7001818,25.8731026 35.5,36.6786524 35.5,50.7844757 L35.5,56.6326558 Z" id="Shape" stroke="#E9E9E9" fill="#FFFFFF" fill-rule="nonzero"></path>
                    <g id="VINCI-CONSTRUCTION" transform="translate(60.000000, 29.000000)">
                        <g transform="translate(0.207914, 0.130435)" id="Vinci">
                            <g>
                                <g id="Vinci-logo">
                                    <g id="g3" transform="translate(0.124557, 0.167500)">
                                        <path d="M19.3472808,4.27150607 L19.3472808,7.88090461 C19.3472808,7.88090461 20.6358898,8.20714212 22.6540642,8.20714212 C24.6585671,8.20714212 25.9608477,7.88242553 25.9608477,7.88242553 L25.9608477,6.65707034 C25.9608477,6.65707034 24.561126,6.93691977 22.6406412,6.93691977 C21.7089849,6.93691977 21.0910292,6.82538558 20.7594312,6.7904044 C20.7579397,6.4966132 20.7601769,5.66137419 20.7594312,5.36327371 C21.1310497,5.32575767 21.7557168,5.21625137 22.6543128,5.21625137 C24.5238398,5.22309551 25.9610962,5.50700073 25.9610962,5.50700073 L25.9610962,4.27175955 C25.9610962,4.27175955 24.6782045,3.9462825 22.6543128,3.9462825 C20.6152581,3.94602902 19.3472808,4.27150607 19.3472808,4.27150607 L19.3472808,4.27150607 Z" id="path5" fill="#004990"></path>
                                        <polygon id="polygon7" fill="#004990" points="27.5310913 8.12602635 28.9795336 8.12602635 28.9795336 4.01320302 27.5310913 4.01320302"></polygon>
                                        <polygon id="polygon9" fill="#004990" points="8.15447877 8.12602635 9.60267244 8.12602635 9.60267244 4.01320302 8.15447877 4.01320302"></polygon>
                                        <path d="M16.3430122,6.57012437 C16.3430122,6.57012437 15.2967631,5.7802595 13.7575913,4.96707385 C12.4103188,4.2555364 11.2251167,4.02004716 11.2251167,4.02004716 L11.2251167,8.12602635 L12.6268269,8.12602635 L12.6268269,5.93159112 C12.9633965,6.07100886 13.3258178,6.22132653 13.7556027,6.44895768 C15.2947745,7.26239682 16.3420179,8.12602635 16.3420179,8.12602635 L17.7486997,8.12602635 L17.7486997,4.01320302 L16.3432608,4.01320302 L16.3432608,6.57012437 L16.3430122,6.57012437 Z" id="path11" fill="#004990"></path>
                                        <path d="M3.59488102,6.40763933 C3.2714859,6.09939938 1.07533227,3.94298717 1.07533227,3.94298717 L-2.27373675e-13,4.94223214 L3.59488102,8.23578613 L7.18802202,4.94451352 L6.11567264,3.94298717 C6.11567264,3.94298717 3.91976759,6.09939938 3.59488102,6.40763933 L3.59488102,6.40763933 Z" id="path13" fill="#004990"></path>
                                        <path d="M38.9433844,3.37543023 C39.2543508,3.37543023 39.5061565,3.11915507 39.5061565,2.80255006 L39.5061565,0.573640628 C39.5061565,0.256528642 39.2543508,0 38.9433844,0 L36.7589138,0 C36.4484445,0 36.1976331,0.256528642 36.1976331,0.573640628 L36.1976331,2.28188817 C36.1976331,2.81268953 35.80066,3.26871229 35.6306352,3.44944837 C35.4586218,3.63170538 34.9980137,4.01447045 34.2617367,4.01573789 L32.2467937,4.01573789 L32.2467937,7.40358897 L35.5679944,7.40358897 L35.5679944,5.34857148 C35.5704802,4.59749009 35.9433416,4.12803254 36.1223151,3.95338013 C36.3005428,3.77898121 36.7469822,3.37543023 37.266751,3.37543023 L38.9433844,3.37543023 L38.9433844,3.37543023 Z" id="path15" fill="#ED1B2D"></path>
                                        <path d="M43.1296236,4.43094926 C42.7848511,4.07657472 42.3038599,3.86161791 41.7704195,3.86161791 C40.6779356,3.86161791 39.8066828,4.76834019 39.8066828,5.85098232 C39.8066828,6.04946248 39.8909495,6.42310203 39.8909495,6.5830522 C39.8909495,7.43603528 39.2138332,8.12602635 38.3786237,8.12602635 L36.7589138,8.12602635 C36.4484445,8.12602635 36.1976331,8.38306196 36.1976331,8.69992046 L36.1976331,10.9285764 C36.1976331,11.2454349 36.4484445,11.502217 36.7589138,11.502217 L38.9433844,11.502217 C39.2543508,11.502217 39.5061565,11.2454349 39.5061565,10.9285764 L39.5061565,9.27584247 C39.5061565,8.42412682 40.18377,7.73312181 41.0192281,7.73312181 C41.1753327,7.73312181 41.5424769,7.81905383 41.7373591,7.81905383 C42.7985227,7.81905383 43.6866785,6.93134306 43.6866785,5.81777555 C43.6864299,5.27277893 43.4716618,4.78709822 43.1296236,4.43094926 L43.1296236,4.43094926 Z" id="path17" fill="#ED1B2D"></path>
                                    </g>
                                </g>
                            </g>
                        </g>
                    </g>
                    <path d="M120.844536,17.8449411 L120.844536,12.7011836 C120.844536,10.9454374 119.421128,9.5220289 117.665382,9.5220289 L114.501662,9.5220289 C113.687941,9.5220289 112.963455,9.85099014 112.401519,10.3535966 C105.988222,6.30573344 98.1042468,4.1057449 89.1046007,3.43190495 L89.1046007,3.17915468 C89.1046007,1.4234085 87.6811921,0 85.925446,0 L79.5878776,0 C77.8321314,0 83.0244141,1.4234085 83.0244141,3.17915468 L83.0244141,3.43190495 C107.019612,12.2878485 114.576578,30.1880988 105.695312,57.1326558 C120.790781,56.5074996 128.402109,56.1610349 128.529297,56.0932617 C129.754142,55.4405924 130.366565,53.6709971 130.366565,50.7844757 C130.366565,36.0931249 126.913437,25.3777674 120.844536,17.8449411 Z" id="Shape" fill="#F7F7F7" fill-rule="nonzero"></path>
                    <path d="M82.7564206,44.4358133 C62.4351057,44.4358133 32.0235561,50.1198004 32.0235561,57.1316911 L133.489767,57.1316911 C133.489767,50.1202827 103.078218,44.4358133 82.7564206,44.4358133 Z" id="Shape" fill="#E4E4E4" fill-rule="nonzero"></path>
                </g>
                <path d="M27.6416063,204 C26.7351331,204 26,204.735133 26,205.641606 L26,217.4654 L29.2832126,217.4654 L29.2832126,205.641606 C29.2827721,204.735133 28.5480795,204 27.6416063,204 Z" id="Shape" fill="#FFD267" fill-rule="nonzero"></path>
                <path d="M33.6416063,209 C32.7351331,209 32,209.735133 32,210.641606 L32,222.4654 L35.2832126,222.4654 L35.2832126,210.641606 C35.2832126,209.735133 34.5480795,209 33.6416063,209 Z" id="Shape" fill="#FFFFFF" fill-rule="nonzero"></path>
                <path d="M43.4593612,218 L23.3473716,218 C20.9464068,218 19,219.946847 19,222.347372 L19,229.267048 L47.8076137,229.267048 L47.8076137,222.347372 C47.8071733,219.946407 45.8607664,218 43.4593612,218 Z" id="Shape" fill="#C1D6E5" fill-rule="nonzero"></path>
            </g>
        </g>
    </g>
</svg>