<?xml version="1.0" encoding="UTF-8"?>
<svg width="265px" height="265px" viewBox="0 0 265 265" version="1.1" xmlns="http://www.w3.org/2000/svg" xmlns:xlink="http://www.w3.org/1999/xlink">
    <!-- Generator: sketchtool 51.1 (57501) - http://www.bohemiancoding.com/sketch -->
    <title>5DA7FA62-9CD5-42A0-846D-62CE5CB4C805</title>
    <desc>Created with sketchtool.</desc>
    <defs></defs>
    <g id="ASSETS" stroke="none" stroke-width="1" fill="none" fill-rule="evenodd">
        <g transform="translate(-559.000000, -657.000000)" id="onboarding2">
            <g transform="translate(559.000000, 657.000000)">
                <path d="M132.5,264.199219 C205.23547,264.199219 264.199219,205.23547 264.199219,132.5 C264.199219,59.7645299 205.23547,0.80078125 132.5,0.80078125 C59.7645299,0.80078125 0.80078125,59.7645299 0.80078125,132.5 C0.80078125,205.23547 59.7645299,264.199219 132.5,264.199219 Z" id="Oval-4-Copy" fill="#1E7BE2" opacity="0.2"></path>
                <path d="M132.5,249.005859 C196.844409,249.005859 249.005859,196.844409 249.005859,132.5 C249.005859,68.1555906 196.844409,15.9941406 132.5,15.9941406 C68.1555906,15.9941406 15.9941406,68.1555906 15.9941406,132.5 C15.9941406,196.844409 68.1555906,249.005859 132.5,249.005859 Z" id="Oval-4-Copy" fill="#1E7BE2" opacity="0.2"></path>
                <g id="004-smartphone" transform="translate(59.000000, 4.000000)">
                    <path d="M126.752837,253.818193 L14.0837127,253.818193 C6.30563997,253.818193 0,247.512553 0,239.734481 L0,14.3956547 C0,6.61758193 6.30563997,0.311941964 14.0837127,0.311941964 L126.753415,0.311941964 C134.531487,0.311941964 140.837127,6.61758193 140.837127,14.3956547 L140.837127,239.734481 C140.83655,247.512553 134.531487,253.818193 126.752837,253.818193 Z" id="Shape" fill="#5B5D6E" fill-rule="nonzero"></path>
                    <circle id="Oval-6" fill="#464655" cx="72" cy="234" r="9"></circle>
                    <path d="M19.0809728,239.673677 L19.0809728,14.3348509 C19.0809728,6.55677815 25.3866128,0.251138179 33.1646856,0.251138179 L14.3864019,0.251138179 C6.60832917,0.251138179 0.302689203,6.55677815 0.302689203,14.3348509 L0.302689203,239.673677 C0.302689203,247.45175 6.60832917,253.75739 14.3864019,253.75739 L33.1646856,253.75739 C25.3860352,253.75739 19.0809728,247.45175 19.0809728,239.673677 Z" id="Shape" fill="#464655" fill-rule="nonzero"></path>
                    <path d="M127.055526,216.200822 L14.3864019,216.200822 C11.7939036,216.200822 9.69183102,214.09875 9.69183102,211.506251 L9.69183102,23.7239927 C9.69183102,21.1314944 11.7939036,19.0294218 14.3864019,19.0294218 L127.056104,19.0294218 C129.648602,19.0294218 131.750675,21.1314944 131.750675,23.7239927 L131.750675,211.506251 C131.750097,214.099327 129.648602,216.200822 127.055526,216.200822 Z" id="Shape" fill="#1E7BE2" fill-rule="nonzero"></path>
                    <path d="M131.750097,74.5388092 C122.08195,50.2809268 98.427135,33.1131345 70.7206752,33.1131345 C43.0142154,33.1131345 19.3594007,50.2809268 9.69125337,74.5388092 L9.69125337,123.134868 C19.3594007,147.39275 43.0142154,164.560542 70.7206752,164.560542 C98.427135,164.560542 122.08195,147.39275 131.750097,123.134868 L131.750097,74.5388092 Z" id="Shape" fill="#1563B9" fill-rule="nonzero"></path>
                    <circle id="Oval" fill="#13C9A0" fill-rule="nonzero" cx="103.584404" cy="188.032242" r="14.0837127"></circle>
                    <circle id="Oval" fill="#EEF4F9" fill-rule="nonzero" cx="37.8592565" cy="188.032242" r="14.0837127"></circle>
                    <circle id="Oval" fill="#FFFFFF" fill-rule="nonzero" cx="70.7218305" cy="98.8371273" r="46.9457091"></circle>
                </g>
                <g id="pencil" transform="translate(100.000000, 76.000000)" fill-rule="nonzero">
                    <path d="M59.646968,47.0635172 L59.6461393,47.0630436 L59.6462577,47.0630436 C58.7569444,46.1737304 42.7671824,30.1839684 41.8950351,29.3117027 L13.4811694,0.897718619 C11.8874614,-0.695989419 10.4868404,0.279390207 10.0034717,0.71789077 C9.56935137,1.15189268 1.12383527,9.59729039 0.585180421,10.1364188 C-0.327691565,11.2707904 0.137682547,12.5114723 1.16609896,13.5398887 L33.3312517,45.7051599 C34.1176878,46.491596 46.6553234,59.0292315 47.4306312,59.8045393 C47.9181434,60.2525107 49.4507644,61.3684142 51.1765909,59.6424693 C51.1767093,59.6422326 51.1769461,59.6419958 51.1773012,59.6419958 C51.1774196,59.6418774 59.6462577,51.1728026 59.6462577,51.1728026 C61.0098239,49.8089995 60.8594741,48.2761417 59.646968,47.0635172 Z M11.7725089,11.2561106 C10.5067292,11.2561106 9.48056211,10.2299435 9.48056211,8.96416377 C9.48056211,7.69814729 10.5066108,6.67221698 11.7725089,6.67221698 C13.038407,6.67221698 14.0644557,7.69814729 14.0644557,8.96416377 C14.0644557,10.2299435 13.0381702,11.2561106 11.7725089,11.2561106 Z" id="Shape" fill="#F7BD48"></path>
                    <path d="M2.00817631,11.6760246 C2.6340814,11.0498827 11.1224531,2.56174775 11.5087456,2.17545527 C11.9451152,1.77981033 13.1224608,0.951820875 14.5171625,1.9338301 L13.481051,0.897837005 C11.8874614,-0.695989419 10.4868404,0.279390207 10.0034717,0.71789077 C9.56935137,1.15189268 1.12383527,9.59729039 0.585180421,10.1364188 C-0.8152038,11.8765699 1.08299221,13.4569004 1.95229827,14.3262064 C1.16361286,13.0947586 1.6179771,12.1610507 2.00817631,11.6760246 Z" id="Shape" fill="#E5A330"></path>
                    <path d="M32.40003,38.8067079 C1.17036084,7.57727551 3.04641873,9.36845087 2.05825345,8.66299059 C0.764771499,9.95647255 1.0632218,9.65790386 0.585180421,10.1364188 C-0.327691565,11.2707904 0.137682547,12.5114723 1.16609896,13.5398887 C2.7110321,15.0849402 46.655205,59.0289947 47.4305128,59.8044209 C47.918025,60.2523924 49.4506461,61.3682958 51.1764725,59.6423509 C51.1765909,59.6421142 51.1768277,59.6418774 51.1771828,59.6418774 L52.2060728,58.6127507 L32.40003,38.8067079 Z" id="Shape" fill="#F4D192"></path>
                    <path d="M2.00817631,11.6760246 C2.486928,11.1971545 2.16314316,11.5209393 3.63846552,10.0454986 C3.3426197,9.74965276 2.81947338,9.20649926 2.05813506,8.66299059 C0.764653114,9.95647255 1.06310342,9.65790386 0.585062036,10.1364188 C-0.815322185,11.8765699 1.08287382,13.4569004 1.95217988,14.3262064 C1.16361286,13.0947586 1.6179771,12.1610507 2.00817631,11.6760246 Z" id="Shape" fill="#E5B66C"></path>
                    <path d="M59.392202,0.359537313 C43.3157817,6.06963387 44.4030358,5.57963553 43.9471325,6.03471009 C5.08324437,44.8985982 7.46812392,42.3769832 7.47309611,42.7896757 C7.47522706,42.9672542 7.54862618,43.1365458 7.67695626,43.2593117 C18.3419671,53.4488857 17.6542647,52.9002864 18.0321518,52.9002864 C18.4353734,52.9002864 16.047771,55.1595587 54.559225,16.647868 C54.9803228,16.2270069 54.4981379,17.3552225 60.2349897,1.20220659 C60.4203816,0.679652195 59.9152299,0.174263722 59.392202,0.359537313 Z" id="Shape" fill="#E5B37C"></path>
                    <path d="M59.3935042,0.359063771 L53.8046346,2.34427326 C55.0446063,3.98107368 56.4906873,5.45734312 58.2502537,6.78953719 L60.2348713,1.20149628 C60.4200265,0.679060266 59.9152299,0.175447579 59.3935042,0.359063771 Z" id="SVGCleanerId_0" fill="#6D6557"></path>
                    <path d="M9.17879701,41.0666905 C9.39591635,40.4538078 7.04015968,42.9389601 43.9473693,6.03447332 C44.0079828,5.97385985 44.0715559,5.91845535 44.1377335,5.86790467 C46.2206111,10.5691184 50.0142803,14.3684701 54.7262672,16.4564384 C54.6755981,16.5229711 54.61972,16.586781 54.5589882,16.6476312 C17.838236,53.3674363 20.1401272,51.198729 19.5277181,51.4154932 C15.1418838,49.0786782 11.5184532,45.4578522 9.17879701,41.0666905 Z" id="Shape" fill="#64A3E8"></path>
                    <path d="M16.1798894,54.7633219 C11.794647,52.4269805 8.17086132,48.8059176 5.83096833,44.4144008 C5.92212531,44.1566752 6.06892355,43.9142213 6.27444109,43.7074015 L2.00178348,47.9800591 C-0.48159295,50.4634356 -0.653962502,54.3811729 1.48218873,57.0653314 C2.1926212,57.8625406 2.7448904,58.4127973 3.52907715,59.1122199 C6.212407,61.2477792 10.1286053,61.0761199 12.6122185,58.5947561 C14.0890799,57.1181315 13.679939,57.527154 17.4885247,53.7185682 C16.8636851,54.3432895 16.6807792,54.5858617 16.1798894,54.7633219 Z" id="SVGCleanerId_1" fill="#E02B2B"></path>
                    <g id="Group" transform="translate(3.314799, 12.667268)" fill="#FCEFDB">
                        <path d="M44.399721,41.4540485 L43.0102282,40.0645557 C42.9355269,40.1233934 40.0889432,42.9758964 40.0217001,43.0430211 L41.4212556,44.4425766 C41.4906296,44.3730842 44.3388707,41.5304072 44.399721,41.4540485 Z" id="Shape"></path>
                        <path d="M39.3970972,36.451188 L38.0076045,35.0616952 C37.9329031,35.1205329 35.0862011,37.9729175 35.018958,38.0400422 L36.4186319,39.4397161 C36.4880059,39.3704605 39.336247,36.5277835 39.3970972,36.451188 Z" id="Shape"></path>
                        <path d="M34.3944735,31.4485642 L33.0050992,30.0591899 C32.9288588,30.1195666 30.0855899,32.9686364 30.0164527,33.0376552 L31.4160082,34.4373291 C31.4849086,34.3684287 34.334452,31.5246862 34.3944735,31.4485642 Z" id="Shape"></path>
                        <path d="M14.3077383,11.524846 C14.3353221,11.4972622 14.3604199,11.4681393 14.384097,11.4383061 L12.9947227,10.0489318 C12.9647711,10.0726089 12.9357666,10.0975883 12.9081827,10.1251721 L10.0060761,13.0272787 L11.4057501,14.4269526 L14.3077383,11.524846 Z" id="Shape"></path>
                        <path d="M9.38147329,6.43568239 L7.99198055,5.04618965 C7.91420116,5.10786859 5.07341836,7.95445229 5.00333404,8.02453662 L6.40288956,9.42409214 C6.47214518,9.35483651 9.32050467,6.51227793 9.38147329,6.43568239 Z" id="Shape"></path>
                        <path d="M4.3786128,1.43305867 L2.98935683,0.0435659306 C2.91157744,0.10524487 0.0707946373,2.95182857 0.000710314086,3.02191289 L1.40050261,4.4215868 C1.46892953,4.35315988 4.31870964,1.50906228 4.3786128,1.43305867 Z" id="Shape"></path>
                    </g>
                    <path d="M36.3255808,24.2690646 L48.4499319,12.1447135 C50.3164005,14.0111821 52.4497105,15.4474372 54.7265039,16.4564384 C54.6758349,16.5229711 54.6200752,16.586781 54.559225,16.6476312 C17.838236,53.3674363 20.1401272,51.198729 19.5277181,51.4154932 C17.3916852,50.2773333 15.3850479,48.8099427 13.5848753,47.0096517 L34.054825,26.5398204" id="SVGCleanerId_2" fill="#FC5F22"></path>
                    <path d="M16.2280724,54.9790206 L20.1562277,51.0508653 C15.7651844,48.4904198 12.0934525,44.8112296 9.54354329,40.4381809 L5.61550639,44.3662178 C8.13321467,48.6840988 11.781151,52.3856639 16.2280724,54.9790206 Z" id="SVGCleanerId_3" fill="#D2D6CE"></path>
                    <path d="M60.0795493,0.514859327 C59.899603,0.334913092 59.631933,0.27465478 59.392202,0.359537313 C43.3157817,6.06963387 44.4030358,5.57963553 43.9471325,6.03471009 C43.4779701,6.50375416 8.09213484,41.8897078 7.66606478,42.3157778 C7.40372211,42.5782389 7.41011493,43.0044273 7.67671949,43.2591933 L8.64085247,44.1802339 L11.0608926,41.7601938 L11.0608926,41.7603122 C48.2455982,4.57572496 45.4932495,7.15534895 46.3347349,6.85831927 L59.9424586,2.02498707 C60.2233879,1.23464427 60.4419278,0.876764354 60.0795493,0.514859327 Z" id="Shape" fill="#DFA061"></path>
                    <path d="M59.3935042,0.359063771 L53.8046346,2.34427326 C55.0446063,3.98107368 56.4906873,5.45734312 58.2502537,6.78953719 L60.2348713,1.20149628 C60.4200265,0.679060266 59.9152299,0.175447579 59.3935042,0.359063771 Z" id="SVGCleanerId_0_1_" fill="#6D6557"></path>
                    <path d="M53.804753,2.34439164 C54.1775495,2.83640253 54.5747335,3.31586454 54.9916879,3.78360637 L59.942577,2.02522385 C60.2379493,1.19380121 60.3705413,0.990414607 60.1918973,0.664380442 C60.0990829,0.487985777 59.9061142,0.346278117 59.6736048,0.324850309 C59.4622863,0.308039542 59.8387528,0.200900501 53.804753,2.34439164 Z" id="Shape" fill="#544C3F"></path>
                    <path d="M9.17879701,41.0666905 C9.47274865,41.6183678 9.78907519,42.1612845 10.1270663,42.6942568 L11.0610109,41.7604306 L11.0610109,41.760549 L45.0838718,7.73768811 C44.7354628,7.12729154 44.4194914,6.50351739 44.1378518,5.86802305 C44.0825657,5.90993158 44.0072724,5.97480694 43.9471325,6.03482848 C7.24544045,42.7364022 9.3929567,40.4620948 9.17879701,41.0666905 Z" id="Shape" fill="#1E7BE2"></path>
                    <path d="M16.1798894,54.7633219 C11.794647,52.4269805 8.17086132,48.8059176 5.83096833,44.4144008 C5.92212531,44.1566752 6.06892355,43.9142213 6.27444109,43.7074015 L2.00178348,47.9800591 C-0.48159295,50.4634356 -0.653962502,54.3811729 1.48218873,57.0653314 C2.1926212,57.8625406 2.7448904,58.4127973 3.52907715,59.1122199 C6.212407,61.2477792 10.1286053,61.0761199 12.6122185,58.5947561 C14.0890799,57.1181315 13.679939,57.527154 17.4885247,53.7185682 C16.8636851,54.3432895 16.6807792,54.5858617 16.1798894,54.7633219 Z" id="SVGCleanerId_1_1_" fill="#E02B2B"></path>
                    <path d="M3.13177481,58.2734573 C0.995741963,55.5892988 1.16787474,51.6716798 3.65136956,49.188185 L6.78645916,46.0530954 C6.44586356,45.5164531 6.12705092,44.9698664 5.83108672,44.4144008 C5.92224369,44.1566752 6.06904194,43.9142213 6.27455948,43.7074015 L2.00190187,47.9799407 C-0.481474565,50.4633172 -0.653844116,54.3810545 1.48230711,57.0652131 C3.15272907,58.9397319 3.91347546,59.4553016 4.64427027,59.8329519 C4.16338763,59.3826128 3.71908617,58.9327472 3.13177481,58.2734573 Z" id="Shape" fill="#C42020"></path>
                    <path d="M36.3255808,24.2690646 L48.4499319,12.1447135 C50.3164005,14.0111821 52.4497105,15.4474372 54.7265039,16.4564384 C54.6758349,16.5229711 54.6200752,16.586781 54.559225,16.6476312 C17.838236,53.3674363 20.1401272,51.198729 19.5277181,51.4154932 C17.3916852,50.2773333 15.3850479,48.8099427 13.5848753,47.0096517 L34.054825,26.5398204" id="SVGCleanerId_2_1_" fill="#1E7BE2"></path>
                    <path d="M16.2280724,54.9790206 L20.1562277,51.0508653 C15.7651844,48.4904198 12.0934525,44.8112296 9.54354329,40.4381809 L5.61550639,44.3662178 C8.13321467,48.6840988 11.781151,52.3856639 16.2280724,54.9790206 Z" id="SVGCleanerId_3_1_" fill="#D2D6CE"></path>
                    <path d="M10.6489104,42.1842513 C10.2588296,41.6120933 9.88887432,41.0304645 9.54354329,40.4381809 L5.61550639,44.3662178 C5.96083743,44.958383 6.33079268,45.5402486 6.7208735,46.1122882 L10.6489104,42.1842513 Z" id="Shape" fill="#AFABA5"></path>
                    <path d="M59.3935042,0.359063771 L53.8046346,2.34427326 C55.0446063,3.98107368 56.4906873,5.45734312 58.2502537,6.78953719 L60.2348713,1.20149628 C60.4200265,0.679060266 59.9152299,0.175447579 59.3935042,0.359063771 Z" id="SVGCleanerId_0_2_" fill="#6D6557"></path>
                </g>
            </g>
        </g>
    </g>
</svg>