<?xml version="1.0" encoding="UTF-8"?>
<svg width="284px" height="269px" viewBox="0 0 284 269" version="1.1" xmlns="http://www.w3.org/2000/svg" xmlns:xlink="http://www.w3.org/1999/xlink">
    <!-- Generator: sketchtool 51.1 (57501) - http://www.bohemiancoding.com/sketch -->
    <title>521DA27D-EE13-4410-9D51-1EAC62BF1A85</title>
    <desc>Created with sketchtool.</desc>
    <defs></defs>
    <g id="ASSETS" stroke="none" stroke-width="1" fill="none" fill-rule="evenodd">
        <g transform="translate(-917.000000, -651.000000)" id="onboarding3">
            <g transform="translate(917.000000, 651.000000)">
                <path d="M148.5,269 C221.125445,269 280,210.125445 280,137.5 C280,64.8745554 221.125445,6 148.5,6 C75.8745554,6 17,64.8745554 17,137.5 C17,210.125445 75.8745554,269 148.5,269 Z" id="Oval-4-Copy" fill="#1E7BE2" opacity="0.2"></path>
                <path d="M148.5,254 C212.841173,254 265,201.841173 265,137.5 C265,73.1588266 212.841173,21 148.5,21 C84.1588266,21 32,73.1588266 32,137.5 C32,201.841173 84.1588266,254 148.5,254 Z" id="Oval-4-Copy" fill="#1E7BE2" opacity="0.2"></path>
                <g id="miner" transform="translate(118.000000, 35.000000)" fill-rule="nonzero">
                    <path d="M39.919421,66.8477724 C35.1477245,65.6538808 32.0217408,68.2046873 32.0217408,73.2143882 C32.0217408,79.8460982 38.4386664,96.0937635 45.1845411,85.9471359 C51.9304158,75.8005084 39.919421,66.8477724 39.919421,66.8477724 Z" id="Shape" fill="#FFE1B2"></path>
                    <path d="M125.263806,66.8477724 C130.472328,65.6538808 133.884691,68.2046873 133.884691,73.2143882 C133.884691,79.8460982 126.880494,96.0937635 119.516872,85.9471359 C112.153251,75.8005084 125.263806,66.8477724 125.263806,66.8477724 Z" id="Shape" fill="#FFE1B2"></path>
                    <path d="M47.9815757,126.454312 C55.1004206,121.870793 54.3041703,108.229082 54.3041703,105.046016 L111.602261,105.046016 C111.602261,108.229082 110.71942,121.870793 117.837781,126.454312 L82.9532157,165.527172 L47.9815757,126.454312 Z" id="Shape" fill="#FFD7A3"></path>
                    <path d="M105.235645,140.061677 L117.837781,126.454312 C110.718936,121.871277 111.602261,108.229082 111.602261,105.046016 L54.3041703,105.046016 C58.4150662,116.865446 85.6060932,137.143705 105.235645,140.061677 Z" id="Shape" fill="#FDC88E"></path>
                    <path d="M127.129718,64.0156611 C127.129718,89.5072791 112.451333,121.313752 82.5648591,121.313752 C52.6783848,121.313752 38,89.5072791 38,64.0156611 C38,38.5240431 57.9526961,29 82.5648591,29 C107.177022,29 127.129718,38.5240431 127.129718,64.0156611 Z" id="Shape" fill="#FFE1B2"></path>
                    <g id="Group-7" transform="translate(57.000000, 54.000000)">
                        <g id="Group" transform="translate(0.622560, 0.564731)">
                            <g transform="translate(3.230272, 11.628978)" id="Oval">
                                <ellipse fill="#3B2519" cx="4.18126352" cy="4.69164643" rx="3.98809328" ry="4.36797322"></ellipse>
                                <circle fill="#FFFFFF" cx="2.44273136" cy="2.7631743" r="1.19261626"></circle>
                            </g>
                            <path d="M1.03174874,5.49598405 C2.91758128,6.43922335 5.94563786,2.29155465 12.8771546,5.899768 C14.1408368,6.55745129 14.8947822,0.273927029 7.4651576,0.273927029 C1.03174874,0.273927029 -0.107891071,4.9268102 1.03174874,5.49598405 Z" id="Shape" fill="#51362A"></path>
                            <g transform="translate(39.409313, 11.628978)" id="Oval">
                                <ellipse fill="#3B2519" cx="4.38412458" cy="4.69164643" rx="3.98809328" ry="4.36797322"></ellipse>
                                <circle fill="#FFFFFF" cx="2.64559242" cy="2.7631743" r="1.19261626"></circle>
                            </g>
                            <path d="M49.6809307,5.49598405 C47.7950982,6.43922335 44.7670416,2.29155465 37.8355249,5.899768 C36.5718426,6.55745129 35.8178973,0.273927029 43.2481679,0.273927029 C49.6809307,0.273927029 50.8199245,4.9268102 49.6809307,5.49598405 Z" id="Shape" fill="#51362A"></path>
                        </g>
                        <path d="M25.9788996,33.2491724 C22.0379683,33.2491724 19.6643647,30.305749 19.6643647,31.7296527 C19.6643647,33.1542024 20.8040045,35.860524 25.9788996,35.860524 C31.1537947,35.860524 32.2934345,33.1542024 32.2934345,31.7296527 C32.2934345,30.3051029 29.9191849,33.2491724 25.9788996,33.2491724 Z" id="Shape" fill="#FCBC85"></path>
                        <path d="M25.9788996,50.3446934 C24.615725,50.3446934 23.79459,49.3265118 23.79459,49.8194512 C23.79459,50.3123907 24.1886831,51.2478773 25.9788996,51.2478773 C27.7691161,51.2478773 28.1625632,50.3123907 28.1625632,49.8194512 C28.1625632,49.3265118 27.3414281,50.3446934 25.9788996,50.3446934 Z" id="Shape" fill="#FCBC85"></path>
                        <path d="M25.9788996,46.7158063 C19.7328465,46.7158063 15.9695801,44.1722905 15.9695801,44.8170527 C15.9695801,45.4618149 17.775948,47.9982241 25.9788996,47.9982241 C34.1818512,47.9982241 35.9882191,45.4618149 35.9882191,44.8170527 C35.987573,44.1722905 32.2249527,46.7158063 25.9788996,46.7158063 Z" id="Shape" fill="#F7945E"></path>
                    </g>
                    <path d="M47.9380383,53.5180788 C46.6115996,56.9667228 44.7549723,72.6174424 44.7549723,72.6174424 L38.3883566,69.4343763 L36.5980029,48.3453547 L47.9380383,53.5180788 Z" id="Shape" fill="#7E5449"></path>
                    <path d="M117.968877,53.5180788 C119.295315,56.9667228 121.151943,72.6174424 121.151943,72.6174424 L127.518559,69.4343763 L129.308912,48.3453547 L117.968877,53.5180788 Z" id="Shape" fill="#7E5449"></path>
                    <path d="M35.7048068,56.7985744 L130.201625,56.7985744 L130.201625,50.9319586 C130.201625,36.7579293 126.984262,25.9335222 120.762574,18.2104389 L120.651943,18.073111 L120.651943,12.738069 C120.651943,11.2533664 119.448258,10.0496818 117.963555,10.0496818 L114.790648,10.0496818 C114.140472,10.0496818 113.525173,10.3024838 113.017739,10.7563436 L112.736553,11.0078416 L112.417535,10.8064874 C106.217912,6.89348846 98.4767637,4.62888769 89.2824989,3.94047586 L88.8198314,3.90583407 L88.8198314,3.18838724 C88.8198314,1.70368459 87.6161468,0.5 86.1314442,0.5 L79.7754709,0.5 C78.2907682,0.5 77.0870836,1.70368459 77.0870836,3.18838724 L77.0870836,3.90573146 L76.6245261,3.94046761 C67.4289038,4.63102085 59.6952511,6.90542727 53.5024938,10.815162 L53.1819769,11.0175171 L52.9005788,10.7635607 C52.3928238,10.3053216 51.7722999,10.0496818 51.1157831,10.0496818 L47.9428758,10.0496818 C46.4581732,10.0496818 45.2544886,11.2533664 45.2544886,12.738069 L45.2544886,18.0789407 L45.1438302,18.216278 C38.914377,25.9476106 35.7048068,36.7848609 35.7048068,50.9319586 L35.7048068,56.7985744 Z" id="Shape" stroke="#E9E9E9" fill="#FFFFFF"></path>
                    <path d="M35.4645798,44.5648591 L130.442819,44.5648591 C130.18353,41.1384675 129.710424,37.960239 129.038013,35.0151773 L36.8708371,35.0151773 C36.197459,37.9645927 35.7233853,41.143305 35.4645798,44.5648591 Z" id="Shape" fill="#545465"></path>
                    <path d="M82.9532157,44.5648591 C62.5728857,44.5648591 32.0730181,50.265353 32.0730181,57.2976069 L133.833897,57.2976069 C133.833413,50.2658367 103.334029,44.5648591 82.9532157,44.5648591 Z" id="Shape" fill="#E4E4E4"></path>
                    <circle id="Oval" fill="#545465" cx="82.996753" cy="31.8321113" r="19.0993635"></circle>
                    <circle id="Oval" fill="#D0D7DC" cx="82.996753" cy="31.8321113" r="12.7327478"></circle>
                    <circle id="Oval" fill="#E4EBF0" cx="82.996753" cy="31.8321113" r="6.36661576"></circle>
                    <path d="M156.211141,203.726383 C161.485453,203.726383 165.760823,199.451013 165.760823,194.176701 L165.760823,163.83502 C165.760823,149.828562 154.846486,134.875891 141.506634,130.607777 L121.59167,124.235357 C110.877122,132.428123 95.5650263,143.604168 82.9972368,143.604168 C70.4294473,143.604168 55.1173518,132.428123 44.4028033,124.235357 L24.4873558,130.607294 C11.1475035,134.875408 0.233166841,149.828078 0.233166841,163.834536 L0.233166841,194.176701 C0.233166841,199.451013 4.50853726,203.726383 9.78284861,203.726383 L156.211141,203.726383 Z" id="Shape" fill="#004990"></path>
                    <path d="M113.424542,130.277861 C103.871958,137.034378 92.6315746,143.603201 82.996753,143.603201 C74.5582419,143.603201 64.8876229,138.561089 56.1975625,132.770134 L54.3477077,133.695061 L76.6301373,203.725899 L89.362885,203.725899 L114.828864,130.511995 L113.424542,130.277861 Z" id="Shape" fill="#545465"></path>
                    <path d="M57.6115597,133.695061 L79.813687,203.725899 L67.0809392,203.725899 L37.2007537,157.9299 C36.0803918,156.809538 35.9546172,155.0366 36.9051832,153.769178 L44.7985097,143.244743 L28.3752436,137.77016 C26.8030605,137.24626 25.8902269,135.620864 26.282547,134.010949 C28.0516158,126.753752 34.5106275,108.229082 54.3477077,108.229082 C54.3477077,114.547323 55.4525896,127.758014 57.6115597,133.695061 Z" id="Shape" fill="#1E7BE2"></path>
                    <path d="M108.38243,133.695061 L86.1803028,203.725899 L98.9130506,203.725899 L128.793236,157.9299 C129.913598,156.809538 130.039373,155.0366 129.088807,153.769178 L121.19548,143.244743 L137.618746,137.77016 C139.190929,137.24626 140.103763,135.620864 139.711443,134.010949 C137.942374,126.753752 131.483362,108.229082 111.646282,108.229082 C111.645798,114.547323 110.5414,127.758014 108.38243,133.695061 Z" id="Shape" fill="#1E7BE2"></path>
                </g>
                <g id="030-worldwide" transform="translate(2.000000, 5.000000)" fill-rule="nonzero">
                    <circle id="Oval" fill="#00C3FF" cx="68.7708972" cy="68.7708972" r="68.1165824"></circle>
                    <path d="M102.829188,118.548571 C65.2095846,118.548571 34.712606,88.051592 34.712606,50.4319882 C34.712606,31.5255644 42.419405,14.4223791 54.8577151,2.08106108 C23.9113151,8.50438076 0.654314842,35.9198244 0.654314842,68.7708972 C0.654314842,106.390501 31.1512934,136.88748 68.7708972,136.88748 C87.4844474,136.88748 104.431039,129.337275 116.742371,117.121824 C112.250378,118.053985 107.597719,118.548571 102.829188,118.548571 Z" id="Shape" fill="#00AAF0"></path>
                    <g id="Group" transform="translate(28.789425, 1.024514)" fill="#C8FF82">
                        <path d="M107.113326,55.8837327 C101.879825,26.2034127 78.1652591,4.44053481 49.8931754,0.300231241 L54.5247328,5.95612877 C55.076329,6.62952042 55.2073794,7.55390687 54.8656859,8.35427671 L51.7108516,15.7386325 C51.3847064,16.5019825 50.3481497,16.6134123 49.8676317,15.9363187 L46.9119643,11.7745436 C46.4488456,11.1222533 45.6854956,10.7505737 44.8866066,10.7879637 L41.7221471,10.9364135 C40.578603,10.9900923 39.5283489,11.5831508 38.8919771,12.534932 L30.1538043,25.6014694 C29.3412179,26.8168321 30.0294175,28.4675486 31.4646783,28.7451978 L35.5116917,29.5285385 C36.873283,29.79212 38.2256193,29.0313614 38.7072479,27.730853 L40.6896626,22.3788887 C41.2464416,20.8762517 43.2325583,20.5615827 44.2265421,21.8187779 L46.0223766,24.090688 L45.0076616,31.2829107 C44.9417662,31.7493612 44.5771204,32.1165984 44.1110401,32.1854554 L34.9190034,33.5474168 C34.5280735,33.6051678 34.1571343,33.7576897 33.8383931,33.990915 L24.7788876,40.6237672 C23.8626456,41.2945675 23.215538,42.2700414 22.9538075,43.3750848 L22.0816191,47.0578227 C21.8058209,48.2224681 20.6989265,48.9935923 19.5109585,48.8484743 L15.4110066,48.3483357 C14.3315068,48.216545 13.3027243,48.8429214 12.9240109,49.8624489 L10.6347014,56.0262592 C10.1582555,57.3086279 10.8738499,58.7253788 12.1887961,59.1026114 L17.3545504,60.585998 C18.6669052,60.9628604 20.0570017,60.3201953 20.6204443,59.0766975 L23.9663012,51.6901205 C24.5149359,50.4792001 25.550382,49.5574051 26.8168321,49.1527778 L32.3461217,47.3865592 L39.7782331,56.405713 L39.0678216,58.5039999 C38.6376506,59.7763732 39.3195568,61.1583254 40.5934109,61.589607 C40.8499587,61.6777143 41.1139104,61.7191766 41.3726794,61.7191766 C42.3873944,61.7191766 43.3332524,61.0787327 43.6779075,60.0651283 L44.388319,57.9668414 C44.9169629,56.405713 44.6037747,54.6824375 43.5594438,53.4071026 L37.3264063,45.7954447 L38.9249248,45.2849405 L44.2154361,48.566753 C45.3478743,49.2693904 46.1426912,50.4055306 46.4144171,51.7101112 L47.6057169,57.4307935 C47.8433845,58.5784098 48.8558783,59.3676737 49.9846145,59.3676737 C50.1486126,59.3676737 50.3148318,59.3510148 50.4836425,59.3165863 C51.7978483,59.042269 52.6437526,57.7539771 52.3679545,56.4375501 L51.7534245,53.1772091 C51.5375985,52.0310736 52.3209392,50.9363957 53.4755894,50.7716572 C54.3329698,50.6491214 55.0207992,50.0001629 55.1925715,49.151297 L56.3572169,43.3965564 C56.6670734,42.3292732 57.6825287,41.6247848 58.790904,41.7088199 L59.9829442,41.7991485 C60.6592974,41.8502359 61.3004818,41.6047941 61.7676727,41.1583343 C62.2389358,40.7081725 62.8275519,40.4023883 63.4765104,40.4586585 L67.1725754,40.7788805 C67.9451803,41.0387601 68.5282435,41.6814252 68.7118621,42.4755017 L69.0661423,44.006644 C69.346753,45.2190451 68.6333799,46.4395906 67.4398589,46.7905391 L56.8369946,49.9068728 C55.6316273,50.261153 55.2044178,51.7493523 56.0384758,52.6889169 L57.0213536,53.7965517 C57.46152,54.2926181 58.1097381,54.5517573 58.770543,54.4962275 L64.9313918,53.9775789 C66.1219511,53.8772551 67.1981191,54.6865097 67.432455,55.8581889 L67.7456432,57.4241299 C68.2976096,60.1847025 66.3151949,62.8079313 63.5087177,63.0300506 L51.640884,63.9699854 C50.2937305,64.0766027 49.3686037,65.4004337 49.7691588,66.6913169 C50.2837351,68.3479566 48.708169,69.8872433 47.0663372,69.3400895 L38.200816,66.3847923 C37.0209923,65.9916412 36.1576887,64.974705 35.9614833,63.7467555 L35.9588919,63.7300966 C35.6949402,62.0808609 34.2519052,60.8806763 32.5823085,60.9221386 L24.1965649,61.1290797 C21.1868485,61.2034897 18.2208156,61.8654051 15.4654258,63.0778063 L12.5438167,64.3635068 C10.8956916,65.0887262 9.80693687,66.6916871 9.74030108,68.4908534 L9.65330436,70.8353225 L1.2220263,80.4708573 C0.472373691,81.3274974 0.0592318108,82.4269879 0.0592318108,83.5653492 L0.0592318108,93.8839009 C0.0592318108,95.7959777 0.836279128,97.6262407 2.21193793,98.9545141 L9.61702487,106.104164 C10.7805598,107.227347 12.2950431,107.916657 13.9061484,108.055852 L36.1114138,109.972741 C37.4867024,110.091575 38.4880902,111.32915 38.3166882,112.698886 L38.1871186,113.736923 C37.9772159,115.416885 38.6872572,117.080189 40.0458869,118.090461 L45.4833671,122.133773 L44.6430158,124.841037 C44.0840156,126.642054 44.6559727,128.602997 46.0956759,129.820951 L51.8726285,134.80975 C57.6240373,133.793184 63.0781765,132.081385 68.1650784,129.778378 L77.1631309,118.977457 C78.6172718,117.240114 79.8126438,115.301753 80.7114865,113.222347 L90.7246241,90.0675212 C91.8033835,87.5731216 90.0090298,84.7170377 87.2917705,84.7366583 C84.3771952,84.7577596 81.6081081,83.4716889 79.7437868,81.2345775 L69.7650777,69.2608669 C68.9047357,68.2283824 69.045041,66.6942785 70.0764149,65.8339365 C71.1126014,64.9735944 72.6452245,65.1138998 73.5055666,66.1452737 L83.4850161,78.1197246 C84.3601661,79.1699787 85.6340202,79.8004272 86.9926499,79.8644716 C88.376453,79.9296266 90.0230974,78.8601222 90.6465122,77.6229178 L96.4504893,66.1008498 C96.9772822,65.0550382 96.6533582,63.7804436 95.6912115,63.1129752 L94.0279082,61.9594356 C93.3974596,61.5222308 93.2238364,60.6663312 93.6340166,60.018113 L94.4551176,58.7194556 C96.0551169,56.1895169 99.5812606,55.7804472 101.717678,57.8772533 L108.038823,64.0803047 C107.889633,61.3645261 107.597546,58.6302377 107.113326,55.8837327 Z" id="Shape"></path>
                        <path d="M19.4424717,39.2999362 C18.7983257,39.2999362 18.1567712,39.0456097 17.6792147,38.5417691 C16.7526071,37.5674058 16.7929587,36.0273787 17.767322,35.1018817 L19.9296533,33.0476484 L19.84895,27.8004504 C19.8274785,26.4566287 20.9017954,25.3504746 22.2445065,25.3290031 C22.2589443,25.3290031 22.2707906,25.3290031 22.282637,25.3290031 C23.6109104,25.3290031 24.6944823,26.3936949 24.7159538,27.7245596 L24.8133161,34.0386706 C24.8229413,34.7194663 24.5493644,35.3728672 24.0551489,35.8411687 L21.1179915,38.630987 C20.6474688,39.077817 20.0436746,39.2999362 19.4424717,39.2999362 Z" id="Shape"></path>
                    </g>
                    <path d="M102.829188,118.5482 C72.7820014,118.5482 47.2971446,99.0842572 38.2476345,72.0838064 L30.0110811,81.4968518 C29.2617986,82.3534918 28.8482866,83.4529823 28.8482866,84.5913437 L28.8482866,94.9098953 C28.8482866,96.8219722 29.6253339,98.6522351 31.0009927,99.9805085 L38.4060796,107.130158 C39.5696145,108.253712 41.0840979,108.942652 42.6952031,109.081476 L64.9004686,110.998366 C66.2757572,111.1172 67.2767748,112.355144 67.1057429,113.72451 L66.9758032,114.762547 C66.7659004,116.44288 67.4759418,118.105813 68.8345714,119.116085 L74.2720516,123.159027 L73.4317003,125.866291 C72.8727001,127.667308 73.4446573,129.628251 74.8843605,130.846205 L80.6572408,135.831673 C80.6994435,135.824269 80.7416462,135.816494 80.7834786,135.80909 C84.941922,135.066101 88.94155,133.954765 92.7616316,132.524316 C93.07519,132.406223 93.3846762,132.280726 93.6956432,132.15819 C94.5311819,131.831304 95.3559849,131.485909 96.1730137,131.127926 C96.4458502,131.007612 96.7172059,130.884706 96.9885617,130.761059 L105.951445,120.002341 C106.375323,119.495909 106.728122,118.93876 107.106836,118.399751 C105.691566,118.488598 104.267781,118.5482 102.829188,118.5482 Z" id="Shape" fill="#B4E66E"></path>
                </g>
                <g id="Group-8" fill-rule="nonzero">
                    <path d="M18.3340065,0 C8.31471623,0 0.192300382,8.12241585 0.192300382,18.1417062 C0.192300382,33.6919078 18.3340065,46.6500177 18.3340065,46.6500177 C18.3340065,46.6500177 36.4757127,33.6916142 36.4757127,18.1417062 C36.4757127,8.12241585 28.3535904,0 18.3340065,0 Z M18.3340065,28.5083115 C12.6087397,28.5083115 7.96740119,23.866973 7.96740119,18.1417062 C7.96740119,12.4161458 12.6087397,7.7751008 18.3340065,7.7751008 C24.0592733,7.7751008 28.7006119,12.4161458 28.7006119,18.1417062 C28.7009055,23.866973 24.0595669,28.5083115 18.3340065,28.5083115 Z" id="Shape" fill="#FF6464"></path>
                    <path d="M7.96740119,18.1417062 C7.96740119,15.1538573 9.24920801,12.4822031 11.2711511,10.5906133 C12.4998184,4.34569505 15.196134,0 18.3340065,0 C8.31471623,0 0.192300382,8.12241585 0.192300382,18.1417062 C0.192300382,33.6919078 18.3340065,46.6500177 18.3340065,46.6500177 C18.3340065,46.6500177 12.9319805,37.6118997 11.1407979,25.5850521 C9.19019675,23.7002148 7.96740119,21.068195 7.96740119,18.1417062 Z" id="Shape" fill="#D2555A"></path>
                </g>
                <g id="Group-8-Copy" transform="translate(100.000000, 0.000000)" fill-rule="nonzero">
                    <path d="M18.3340065,0 C8.31471623,0 0.192300382,8.12241585 0.192300382,18.1417062 C0.192300382,33.6919078 18.3340065,46.6500177 18.3340065,46.6500177 C18.3340065,46.6500177 36.4757127,33.6916142 36.4757127,18.1417062 C36.4757127,8.12241585 28.3535904,0 18.3340065,0 Z M18.3340065,28.5083115 C12.6087397,28.5083115 7.96740119,23.866973 7.96740119,18.1417062 C7.96740119,12.4161458 12.6087397,7.7751008 18.3340065,7.7751008 C24.0592733,7.7751008 28.7006119,12.4161458 28.7006119,18.1417062 C28.7009055,23.866973 24.0595669,28.5083115 18.3340065,28.5083115 Z" id="Shape" fill="#FF6464"></path>
                    <path d="M7.96740119,18.1417062 C7.96740119,15.1538573 9.24920801,12.4822031 11.2711511,10.5906133 C12.4998184,4.34569505 15.196134,0 18.3340065,0 C8.31471623,0 0.192300382,8.12241585 0.192300382,18.1417062 C0.192300382,33.6919078 18.3340065,46.6500177 18.3340065,46.6500177 C18.3340065,46.6500177 12.9319805,37.6118997 11.1407979,25.5850521 C9.19019675,23.7002148 7.96740119,21.068195 7.96740119,18.1417062 Z" id="Shape" fill="#D2555A"></path>
                </g>
                <g id="Group-8-Copy-2" transform="translate(63.000000, 74.000000)" fill-rule="nonzero">
                    <path d="M18.3340065,0 C8.31471623,0 0.192300382,8.12241585 0.192300382,18.1417062 C0.192300382,33.6919078 18.3340065,46.6500177 18.3340065,46.6500177 C18.3340065,46.6500177 36.4757127,33.6916142 36.4757127,18.1417062 C36.4757127,8.12241585 28.3535904,0 18.3340065,0 Z M18.3340065,28.5083115 C12.6087397,28.5083115 7.96740119,23.866973 7.96740119,18.1417062 C7.96740119,12.4161458 12.6087397,7.7751008 18.3340065,7.7751008 C24.0592733,7.7751008 28.7006119,12.4161458 28.7006119,18.1417062 C28.7009055,23.866973 24.0595669,28.5083115 18.3340065,28.5083115 Z" id="Shape" fill="#FF6464"></path>
                    <path d="M7.96740119,18.1417062 C7.96740119,15.1538573 9.24920801,12.4822031 11.2711511,10.5906133 C12.4998184,4.34569505 15.196134,0 18.3340065,0 C8.31471623,0 0.192300382,8.12241585 0.192300382,18.1417062 C0.192300382,33.6919078 18.3340065,46.6500177 18.3340065,46.6500177 C18.3340065,46.6500177 12.9319805,37.6118997 11.1407979,25.5850521 C9.19019675,23.7002148 7.96740119,21.068195 7.96740119,18.1417062 Z" id="Shape" fill="#D2555A"></path>
                </g>
            </g>
        </g>
    </g>
</svg>