<?xml version="1.0" encoding="UTF-8"?>
<svg width="116px" height="100px" viewBox="0 0 116 100" version="1.1" xmlns="http://www.w3.org/2000/svg" xmlns:xlink="http://www.w3.org/1999/xlink">
    <!-- Generator: sketchtool 51.1 (57501) - http://www.bohemiancoding.com/sketch -->
    <title>4FA483A6-7511-4E65-9577-85E5094C93C9</title>
    <desc>Created with sketchtool.</desc>
    <defs></defs>
    <g id="ASSETS" stroke="none" stroke-width="1" fill="none" fill-rule="evenodd" fill-opacity="0.4">
        <g transform="translate(-982.000000, -128.000000)" fill="#1E7BE2" id="profil">
            <path d="M1057.15079,138.001487 C1057.15079,135.241077 1054.90629,133.000744 1052.14074,133.000744 L992.020105,133.000744 C989.254556,133.000744 987.010053,135.241077 987.010053,138.001487 L987.010053,198.010412 C987.010053,200.773323 989.254556,203.011156 992.020105,203.011156 L996.541678,203.011156 C997.413427,201.400917 997.876857,195.139985 998.771151,193.794785 C998.771151,193.794785 1000.33178,188.699027 1012.62395,188.223957 C1013.87646,188.223957 1014.50272,187.43884 1014.50272,186.241162 L1014.50272,184.508404 C1014.50272,184.265868 1014.46264,184.050836 1014.44761,183.813301 C1013.35792,182.948172 1013.0974,182.615623 1011.2036,181.040388 C1011.2036,181.040388 1007.01018,178.299981 1006.54174,175.222023 C1006.54174,175.222023 1004.59784,165.72061 1004.59784,162.220089 C1004.59784,153.591306 1008.45809,145.502603 1022.08042,145.502603 C1035.51989,145.502603 1039.563,153.591306 1039.563,162.220089 C1039.563,165.635597 1037.6191,175.222023 1037.6191,175.222023 C1037.22831,178.137457 1032.95724,181.040388 1032.95724,181.040388 C1031.25884,182.613122 1030.48729,183.27322 1029.51534,183.910815 C1029.50782,184.113345 1029.47025,184.300873 1029.47025,184.508404 L1029.47025,186.241162 C1029.47025,187.43884 1030.0965,188.223957 1031.34902,188.223957 C1043.82655,188.759036 1045.38969,193.794785 1045.38969,193.794785 C1046.28398,195.139985 1046.74741,201.400917 1047.61916,203.011156 L1052.14074,203.011156 C1054.90629,203.011156 1057.15079,200.773323 1057.15079,198.010412 L1057.15079,138.001487 Z M1024.58545,183.008181 L1024.58545,180.507809 L1027.48627,179.337635 C1028.93918,178.172462 1032.60905,174.721949 1032.60905,174.721949 L1032.70925,174.229375 C1033.47328,170.451314 1034.55295,164.225388 1034.55295,162.220089 C1034.55295,154.116384 1030.70523,150.503347 1022.08042,150.503347 C1013.45562,150.503347 1009.60789,154.116384 1009.60789,162.220089 C1009.60789,164.397913 1010.74017,170.738856 1011.45159,174.221874 L1011.5518,174.834465 C1012.37094,175.659588 1014.65803,177.849914 1016.69712,179.255123 L1019.57539,180.507809 L1019.57539,183.008181 C1019.55535,182.805651 1019.57539,188.008925 1019.57539,188.008925 C1019.57539,192.052026 1016.80734,193.2197 1013.01223,193.2197 L1013.00471,193.2197 C1004.49263,193.552249 1003.16747,196.352666 1002.86937,196.677714 C1002.60384,197.075273 1002.30825,202.133525 1002.02017,203.011156 L1042.14568,203.011156 C1041.86011,202.136026 1041.58205,197.102777 1041.27644,196.64771 C1041.1587,196.507689 1040.04146,193.599756 1031.34902,193.224701 C1027.35601,193.224701 1024.58545,192.054526 1024.58545,188.008925 C1024.58545,188.008925 1024.63304,182.655629 1024.58545,183.008181 Z M1052.14074,208.0119 L992.020105,208.0119 C986.486502,208.0119 982,203.533734 982,198.010412 L982,138.001487 C982,132.478166 986.486502,128 992.020105,128 L1052.14074,128 C1057.67434,128 1062.16084,132.478166 1062.16084,138.001487 L1062.16084,198.010412 C1062.16084,203.533734 1057.67434,208.0119 1052.14074,208.0119 Z M1096.2818,172.744155 L1073.14789,222.261519 C1070.82573,227.234759 1064.90134,229.385078 1059.91884,227.067234 L1046.33659,220.743793 C1045.3471,220.408743 1044.62566,219.503609 1044.62566,218.403445 C1044.62566,217.02324 1045.7454,215.903073 1047.13068,215.903073 C1047.55904,215.903073 1047.94231,216.038093 1048.29552,216.228122 L1048.31807,216.185615 L1062.02306,222.566564 C1064.51306,223.724237 1067.474,222.649077 1068.63884,220.163707 L1091.77025,170.643842 C1092.93258,168.158473 1091.85542,165.200533 1089.36292,164.04286 L1072.18095,156.044171 C1072.18095,156.044171 1069.59826,155.151538 1069.59826,153.238754 C1069.59826,151.858548 1070.71801,150.738382 1072.10329,150.738382 C1072.54668,150.738382 1072.94247,150.883403 1073.30069,151.085933 L1091.46714,159.539691 C1096.44964,161.860036 1098.60647,167.770915 1096.2818,172.744155 Z"></path>
        </g>
    </g>
</svg>